<?xml version="1.0" encoding="utf-8" standalone="no"?>
<!DOCTYPE svg PUBLIC "-//W3C//DTD SVG 1.1//EN"
  "http://www.w3.org/Graphics/SVG/1.1/DTD/svg11.dtd">
<!-- Created with matplotlib (https://matplotlib.org/) -->
<svg height="576pt" version="1.1" viewBox="0 0 1440 576" width="1440pt" xmlns="http://www.w3.org/2000/svg" xmlns:xlink="http://www.w3.org/1999/xlink">
 <defs>
  <style type="text/css">
*{stroke-linecap:butt;stroke-linejoin:round;}
  </style>
 </defs>
 <g id="figure_1">
  <g id="patch_1">
   <path d="M 0 576 
L 1440 576 
L 1440 0 
L 0 0 
z
" style="fill:#ffffff;"/>
  </g>
  <g id="axes_1">
   <g id="patch_2">
    <path d="M 57.425 534.2 
L 1429.2 534.2 
L 1429.2 26.8 
L 57.425 26.8 
z
" style="fill:#ffffff;"/>
   </g>
   <g id="patch_3">
    <path clip-path="url(#p369cd0a6d4)" d="M 119.778409 534.2 
L 129.42898 534.2 
L 129.42898 534.193247 
L 119.778409 534.193247 
z
" style="fill:#1f77b4;opacity:0.9;"/>
   </g>
   <g id="patch_4">
    <path clip-path="url(#p369cd0a6d4)" d="M 227.006972 534.2 
L 236.657542 534.2 
L 236.657542 534.184242 
L 227.006972 534.184242 
z
" style="fill:#1f77b4;opacity:0.9;"/>
   </g>
   <g id="patch_5">
    <path clip-path="url(#p369cd0a6d4)" d="M 334.235534 534.2 
L 343.886105 534.2 
L 343.886105 534.15309 
L 334.235534 534.15309 
z
" style="fill:#1f77b4;opacity:0.9;"/>
   </g>
   <g id="patch_6">
    <path clip-path="url(#p369cd0a6d4)" d="M 441.464097 534.2 
L 451.114667 534.2 
L 451.114667 534.115337 
L 441.464097 534.115337 
z
" style="fill:#1f77b4;opacity:0.9;"/>
   </g>
   <g id="patch_7">
    <path clip-path="url(#p369cd0a6d4)" d="M 548.692659 534.2 
L 558.34323 534.2 
L 558.34323 533.990246 
L 548.692659 533.990246 
z
" style="fill:#1f77b4;opacity:0.9;"/>
   </g>
   <g id="patch_8">
    <path clip-path="url(#p369cd0a6d4)" d="M 655.921222 534.2 
L 665.571792 534.2 
L 665.571792 533.249832 
L 655.921222 533.249832 
z
" style="fill:#1f77b4;opacity:0.9;"/>
   </g>
   <g id="patch_9">
    <path clip-path="url(#p369cd0a6d4)" d="M 763.149784 534.2 
L 772.800355 534.2 
L 772.800355 531.598211 
L 763.149784 531.598211 
z
" style="fill:#1f77b4;opacity:0.9;"/>
   </g>
   <g id="patch_10">
    <path clip-path="url(#p369cd0a6d4)" d="M 870.378347 534.2 
L 880.028917 534.2 
L 880.028917 529.0753 
L 870.378347 529.0753 
z
" style="fill:#1f77b4;opacity:0.9;"/>
   </g>
   <g id="patch_11">
    <path clip-path="url(#p369cd0a6d4)" d="M 977.606909 534.2 
L 987.25748 534.2 
L 987.25748 525.353472 
L 977.606909 525.353472 
z
" style="fill:#1f77b4;opacity:0.9;"/>
   </g>
   <g id="patch_12">
    <path clip-path="url(#p369cd0a6d4)" d="M 1084.835472 534.2 
L 1094.486042 534.2 
L 1094.486042 480.567254 
L 1084.835472 480.567254 
z
" style="fill:#1f77b4;opacity:0.9;"/>
   </g>
   <g id="patch_13">
    <path clip-path="url(#p369cd0a6d4)" d="M 1192.064034 534.2 
L 1201.714605 534.2 
L 1201.714605 317.756425 
L 1192.064034 317.756425 
z
" style="fill:#1f77b4;opacity:0.9;"/>
   </g>
   <g id="patch_14">
    <path clip-path="url(#p369cd0a6d4)" d="M 1299.292597 534.2 
L 1308.943167 534.2 
L 1308.943167 50.961905 
L 1299.292597 50.961905 
z
" style="fill:#1f77b4;opacity:0.9;"/>
   </g>
   <g id="patch_15">
    <path clip-path="url(#p369cd0a6d4)" d="M 129.42898 534.2 
L 139.07955 534.2 
L 139.07955 534.190865 
L 129.42898 534.190865 
z
" style="fill:#ff7f0e;opacity:0.9;"/>
   </g>
   <g id="patch_16">
    <path clip-path="url(#p369cd0a6d4)" d="M 236.657542 534.2 
L 246.308113 534.2 
L 246.308113 534.183432 
L 236.657542 534.183432 
z
" style="fill:#ff7f0e;opacity:0.9;"/>
   </g>
   <g id="patch_17">
    <path clip-path="url(#p369cd0a6d4)" d="M 343.886105 534.2 
L 353.536675 534.2 
L 353.536675 534.164024 
L 343.886105 534.164024 
z
" style="fill:#ff7f0e;opacity:0.9;"/>
   </g>
   <g id="patch_18">
    <path clip-path="url(#p369cd0a6d4)" d="M 451.114667 534.2 
L 460.765238 534.2 
L 460.765238 534.130547 
L 451.114667 534.130547 
z
" style="fill:#ff7f0e;opacity:0.9;"/>
   </g>
   <g id="patch_19">
    <path clip-path="url(#p369cd0a6d4)" d="M 558.34323 534.2 
L 567.9938 534.2 
L 567.9938 534.079975 
L 558.34323 534.079975 
z
" style="fill:#ff7f0e;opacity:0.9;"/>
   </g>
   <g id="patch_20">
    <path clip-path="url(#p369cd0a6d4)" d="M 665.571792 534.2 
L 675.222363 534.2 
L 675.222363 533.648289 
L 665.571792 533.648289 
z
" style="fill:#ff7f0e;opacity:0.9;"/>
   </g>
   <g id="patch_21">
    <path clip-path="url(#p369cd0a6d4)" d="M 772.800355 534.2 
L 782.450925 534.2 
L 782.450925 532.564645 
L 772.800355 532.564645 
z
" style="fill:#ff7f0e;opacity:0.9;"/>
   </g>
   <g id="patch_22">
    <path clip-path="url(#p369cd0a6d4)" d="M 880.028917 534.2 
L 889.679488 534.2 
L 889.679488 531.179294 
L 880.028917 531.179294 
z
" style="fill:#ff7f0e;opacity:0.9;"/>
   </g>
   <g id="patch_23">
    <path clip-path="url(#p369cd0a6d4)" d="M 987.25748 534.2 
L 996.90805 534.2 
L 996.90805 528.888377 
L 987.25748 528.888377 
z
" style="fill:#ff7f0e;opacity:0.9;"/>
   </g>
   <g id="patch_24">
    <path clip-path="url(#p369cd0a6d4)" d="M 1094.486042 534.2 
L 1104.136613 534.2 
L 1104.136613 503.282144 
L 1094.486042 503.282144 
z
" style="fill:#ff7f0e;opacity:0.9;"/>
   </g>
   <g id="patch_25">
    <path clip-path="url(#p369cd0a6d4)" d="M 1201.714605 534.2 
L 1211.365175 534.2 
L 1211.365175 406.469499 
L 1201.714605 406.469499 
z
" style="fill:#ff7f0e;opacity:0.9;"/>
   </g>
   <g id="patch_26">
    <path clip-path="url(#p369cd0a6d4)" d="M 1308.943167 534.2 
L 1318.593738 534.2 
L 1318.593738 255.144484 
L 1308.943167 255.144484 
z
" style="fill:#ff7f0e;opacity:0.9;"/>
   </g>
   <g id="patch_27">
    <path clip-path="url(#p369cd0a6d4)" d="M 139.07955 534.2 
L 148.730121 534.2 
L 148.730121 534.186274 
L 139.07955 534.186274 
z
" style="fill:#2ca02c;opacity:0.9;"/>
   </g>
   <g id="patch_28">
    <path clip-path="url(#p369cd0a6d4)" d="M 246.308113 534.2 
L 255.958683 534.2 
L 255.958683 534.176861 
L 246.308113 534.176861 
z
" style="fill:#2ca02c;opacity:0.9;"/>
   </g>
   <g id="patch_29">
    <path clip-path="url(#p369cd0a6d4)" d="M 353.536675 534.2 
L 363.187246 534.2 
L 363.187246 534.160375 
L 353.536675 534.160375 
z
" style="fill:#2ca02c;opacity:0.9;"/>
   </g>
   <g id="patch_30">
    <path clip-path="url(#p369cd0a6d4)" d="M 460.765238 534.2 
L 470.415808 534.2 
L 470.415808 534.132718 
L 460.765238 534.132718 
z
" style="fill:#2ca02c;opacity:0.9;"/>
   </g>
   <g id="patch_31">
    <path clip-path="url(#p369cd0a6d4)" d="M 567.9938 534.2 
L 577.644371 534.2 
L 577.644371 534.102289 
L 567.9938 534.102289 
z
" style="fill:#2ca02c;opacity:0.9;"/>
   </g>
   <g id="patch_32">
    <path clip-path="url(#p369cd0a6d4)" d="M 675.222363 534.2 
L 684.872933 534.2 
L 684.872933 533.990977 
L 675.222363 533.990977 
z
" style="fill:#2ca02c;opacity:0.9;"/>
   </g>
   <g id="patch_33">
    <path clip-path="url(#p369cd0a6d4)" d="M 782.450925 534.2 
L 792.101496 534.2 
L 792.101496 533.745526 
L 782.450925 533.745526 
z
" style="fill:#2ca02c;opacity:0.9;"/>
   </g>
   <g id="patch_34">
    <path clip-path="url(#p369cd0a6d4)" d="M 889.679488 534.2 
L 899.330058 534.2 
L 899.330058 533.562476 
L 889.679488 533.562476 
z
" style="fill:#2ca02c;opacity:0.9;"/>
   </g>
   <g id="patch_35">
    <path clip-path="url(#p369cd0a6d4)" d="M 996.90805 534.2 
L 1006.558621 534.2 
L 1006.558621 533.355025 
L 996.90805 533.355025 
z
" style="fill:#2ca02c;opacity:0.9;"/>
   </g>
   <g id="patch_36">
    <path clip-path="url(#p369cd0a6d4)" d="M 1104.136613 534.2 
L 1113.787183 534.2 
L 1113.787183 532.515322 
L 1104.136613 532.515322 
z
" style="fill:#2ca02c;opacity:0.9;"/>
   </g>
   <g id="patch_37">
    <path clip-path="url(#p369cd0a6d4)" d="M 1211.365175 534.2 
L 1221.015746 534.2 
L 1221.015746 531.046636 
L 1211.365175 531.046636 
z
" style="fill:#2ca02c;opacity:0.9;"/>
   </g>
   <g id="patch_38">
    <path clip-path="url(#p369cd0a6d4)" d="M 1318.593738 534.2 
L 1328.244308 534.2 
L 1328.244308 529.640988 
L 1318.593738 529.640988 
z
" style="fill:#2ca02c;opacity:0.9;"/>
   </g>
   <g id="patch_39">
    <path clip-path="url(#p369cd0a6d4)" d="M 148.730121 534.2 
L 158.380692 534.2 
L 158.380692 534.185689 
L 148.730121 534.185689 
z
" style="fill:#d62728;opacity:0.9;"/>
   </g>
   <g id="patch_40">
    <path clip-path="url(#p369cd0a6d4)" d="M 255.958683 534.2 
L 265.609254 534.2 
L 265.609254 534.174016 
L 255.958683 534.174016 
z
" style="fill:#d62728;opacity:0.9;"/>
   </g>
   <g id="patch_41">
    <path clip-path="url(#p369cd0a6d4)" d="M 363.187246 534.2 
L 372.837817 534.2 
L 372.837817 534.151466 
L 363.187246 534.151466 
z
" style="fill:#d62728;opacity:0.9;"/>
   </g>
   <g id="patch_42">
    <path clip-path="url(#p369cd0a6d4)" d="M 470.415808 534.2 
L 480.066379 534.2 
L 480.066379 534.129105 
L 470.415808 534.129105 
z
" style="fill:#d62728;opacity:0.9;"/>
   </g>
   <g id="patch_43">
    <path clip-path="url(#p369cd0a6d4)" d="M 577.644371 534.2 
L 587.294942 534.2 
L 587.294942 534.102239 
L 577.644371 534.102239 
z
" style="fill:#d62728;opacity:0.9;"/>
   </g>
   <g id="patch_44">
    <path clip-path="url(#p369cd0a6d4)" d="M 684.872933 534.2 
L 694.523504 534.2 
L 694.523504 533.995916 
L 684.872933 533.995916 
z
" style="fill:#d62728;opacity:0.9;"/>
   </g>
   <g id="patch_45">
    <path clip-path="url(#p369cd0a6d4)" d="M 792.101496 534.2 
L 801.752067 534.2 
L 801.752067 533.673478 
L 792.101496 533.673478 
z
" style="fill:#d62728;opacity:0.9;"/>
   </g>
   <g id="patch_46">
    <path clip-path="url(#p369cd0a6d4)" d="M 899.330058 534.2 
L 908.980629 534.2 
L 908.980629 533.417669 
L 899.330058 533.417669 
z
" style="fill:#d62728;opacity:0.9;"/>
   </g>
   <g id="patch_47">
    <path clip-path="url(#p369cd0a6d4)" d="M 1006.558621 534.2 
L 1016.209192 534.2 
L 1016.209192 533.202399 
L 1006.558621 533.202399 
z
" style="fill:#d62728;opacity:0.9;"/>
   </g>
   <g id="patch_48">
    <path clip-path="url(#p369cd0a6d4)" d="M 1113.787183 534.2 
L 1123.437754 534.2 
L 1123.437754 532.061575 
L 1113.787183 532.061575 
z
" style="fill:#d62728;opacity:0.9;"/>
   </g>
   <g id="patch_49">
    <path clip-path="url(#p369cd0a6d4)" d="M 1221.015746 534.2 
L 1230.666317 534.2 
L 1230.666317 530.121418 
L 1221.015746 530.121418 
z
" style="fill:#d62728;opacity:0.9;"/>
   </g>
   <g id="patch_50">
    <path clip-path="url(#p369cd0a6d4)" d="M 1328.244308 534.2 
L 1337.894879 534.2 
L 1337.894879 527.989856 
L 1328.244308 527.989856 
z
" style="fill:#d62728;opacity:0.9;"/>
   </g>
   <g id="patch_51">
    <path clip-path="url(#p369cd0a6d4)" d="M 158.380692 534.2 
L 168.031262 534.2 
L 168.031262 534.190779 
L 158.380692 534.190779 
z
" style="fill:#9467bd;opacity:0.9;"/>
   </g>
   <g id="patch_52">
    <path clip-path="url(#p369cd0a6d4)" d="M 265.609254 534.2 
L 275.259825 534.2 
L 275.259825 534.186367 
L 265.609254 534.186367 
z
" style="fill:#9467bd;opacity:0.9;"/>
   </g>
   <g id="patch_53">
    <path clip-path="url(#p369cd0a6d4)" d="M 372.837817 534.2 
L 382.488387 534.2 
L 382.488387 534.17452 
L 372.837817 534.17452 
z
" style="fill:#9467bd;opacity:0.9;"/>
   </g>
   <g id="patch_54">
    <path clip-path="url(#p369cd0a6d4)" d="M 480.066379 534.2 
L 489.71695 534.2 
L 489.71695 534.158733 
L 480.066379 534.158733 
z
" style="fill:#9467bd;opacity:0.9;"/>
   </g>
   <g id="patch_55">
    <path clip-path="url(#p369cd0a6d4)" d="M 587.294942 534.2 
L 596.945512 534.2 
L 596.945512 534.132094 
L 587.294942 534.132094 
z
" style="fill:#9467bd;opacity:0.9;"/>
   </g>
   <g id="patch_56">
    <path clip-path="url(#p369cd0a6d4)" d="M 694.523504 534.2 
L 704.174075 534.2 
L 704.174075 534.09027 
L 694.523504 534.09027 
z
" style="fill:#9467bd;opacity:0.9;"/>
   </g>
   <g id="patch_57">
    <path clip-path="url(#p369cd0a6d4)" d="M 801.752067 534.2 
L 811.402637 534.2 
L 811.402637 533.985371 
L 801.752067 533.985371 
z
" style="fill:#9467bd;opacity:0.9;"/>
   </g>
   <g id="patch_58">
    <path clip-path="url(#p369cd0a6d4)" d="M 908.980629 534.2 
L 918.6312 534.2 
L 918.6312 533.812525 
L 908.980629 533.812525 
z
" style="fill:#9467bd;opacity:0.9;"/>
   </g>
   <g id="patch_59">
    <path clip-path="url(#p369cd0a6d4)" d="M 1016.209192 534.2 
L 1025.859762 534.2 
L 1025.859762 533.771785 
L 1016.209192 533.771785 
z
" style="fill:#9467bd;opacity:0.9;"/>
   </g>
   <g id="patch_60">
    <path clip-path="url(#p369cd0a6d4)" d="M 1123.437754 534.2 
L 1133.088325 534.2 
L 1133.088325 533.033879 
L 1123.437754 533.033879 
z
" style="fill:#9467bd;opacity:0.9;"/>
   </g>
   <g id="patch_61">
    <path clip-path="url(#p369cd0a6d4)" d="M 1230.666317 534.2 
L 1240.316887 534.2 
L 1240.316887 531.966946 
L 1230.666317 531.966946 
z
" style="fill:#9467bd;opacity:0.9;"/>
   </g>
   <g id="patch_62">
    <path clip-path="url(#p369cd0a6d4)" d="M 1337.894879 534.2 
L 1347.54545 534.2 
L 1347.54545 531.06702 
L 1337.894879 531.06702 
z
" style="fill:#9467bd;opacity:0.9;"/>
   </g>
   <g id="patch_63">
    <path clip-path="url(#p369cd0a6d4)" d="M 168.031262 534.2 
L 177.681833 534.2 
L 177.681833 534.184402 
L 168.031262 534.184402 
z
" style="fill:#8c564b;opacity:0.9;"/>
   </g>
   <g id="patch_64">
    <path clip-path="url(#p369cd0a6d4)" d="M 275.259825 534.2 
L 284.910395 534.2 
L 284.910395 534.174471 
L 275.259825 534.174471 
z
" style="fill:#8c564b;opacity:0.9;"/>
   </g>
   <g id="patch_65">
    <path clip-path="url(#p369cd0a6d4)" d="M 382.488387 534.2 
L 392.138958 534.2 
L 392.138958 534.152861 
L 382.488387 534.152861 
z
" style="fill:#8c564b;opacity:0.9;"/>
   </g>
   <g id="patch_66">
    <path clip-path="url(#p369cd0a6d4)" d="M 489.71695 534.2 
L 499.36752 534.2 
L 499.36752 534.134755 
L 489.71695 534.134755 
z
" style="fill:#8c564b;opacity:0.9;"/>
   </g>
   <g id="patch_67">
    <path clip-path="url(#p369cd0a6d4)" d="M 596.945512 534.2 
L 606.596083 534.2 
L 606.596083 534.08207 
L 596.945512 534.08207 
z
" style="fill:#8c564b;opacity:0.9;"/>
   </g>
   <g id="patch_68">
    <path clip-path="url(#p369cd0a6d4)" d="M 704.174075 534.2 
L 713.824645 534.2 
L 713.824645 533.986766 
L 704.174075 533.986766 
z
" style="fill:#8c564b;opacity:0.9;"/>
   </g>
   <g id="patch_69">
    <path clip-path="url(#p369cd0a6d4)" d="M 811.402637 534.2 
L 821.053208 534.2 
L 821.053208 533.752765 
L 811.402637 533.752765 
z
" style="fill:#8c564b;opacity:0.9;"/>
   </g>
   <g id="patch_70">
    <path clip-path="url(#p369cd0a6d4)" d="M 918.6312 534.2 
L 928.28177 534.2 
L 928.28177 533.426155 
L 918.6312 533.426155 
z
" style="fill:#8c564b;opacity:0.9;"/>
   </g>
   <g id="patch_71">
    <path clip-path="url(#p369cd0a6d4)" d="M 1025.859762 534.2 
L 1035.510333 534.2 
L 1035.510333 533.223741 
L 1025.859762 533.223741 
z
" style="fill:#8c564b;opacity:0.9;"/>
   </g>
   <g id="patch_72">
    <path clip-path="url(#p369cd0a6d4)" d="M 1133.088325 534.2 
L 1142.738895 534.2 
L 1142.738895 531.992238 
L 1133.088325 531.992238 
z
" style="fill:#8c564b;opacity:0.9;"/>
   </g>
   <g id="patch_73">
    <path clip-path="url(#p369cd0a6d4)" d="M 1240.316887 534.2 
L 1249.967458 534.2 
L 1249.967458 530.258752 
L 1240.316887 530.258752 
z
" style="fill:#8c564b;opacity:0.9;"/>
   </g>
   <g id="patch_74">
    <path clip-path="url(#p369cd0a6d4)" d="M 1347.54545 534.2 
L 1357.19602 534.2 
L 1357.19602 528.093823 
L 1347.54545 528.093823 
z
" style="fill:#8c564b;opacity:0.9;"/>
   </g>
   <g id="patch_75">
    <path clip-path="url(#p369cd0a6d4)" d="M 177.681833 534.2 
L 187.332403 534.2 
L 187.332403 534.190467 
L 177.681833 534.190467 
z
" style="fill:#e377c2;opacity:0.9;"/>
   </g>
   <g id="patch_76">
    <path clip-path="url(#p369cd0a6d4)" d="M 284.910395 534.2 
L 294.560966 534.2 
L 294.560966 534.177276 
L 284.910395 534.177276 
z
" style="fill:#e377c2;opacity:0.9;"/>
   </g>
   <g id="patch_77">
    <path clip-path="url(#p369cd0a6d4)" d="M 392.138958 534.2 
L 401.789528 534.2 
L 401.789528 534.162714 
L 392.138958 534.162714 
z
" style="fill:#e377c2;opacity:0.9;"/>
   </g>
   <g id="patch_78">
    <path clip-path="url(#p369cd0a6d4)" d="M 499.36752 534.2 
L 509.018091 534.2 
L 509.018091 534.151043 
L 499.36752 534.151043 
z
" style="fill:#e377c2;opacity:0.9;"/>
   </g>
   <g id="patch_79">
    <path clip-path="url(#p369cd0a6d4)" d="M 606.596083 534.2 
L 616.246653 534.2 
L 616.246653 534.121818 
L 606.596083 534.121818 
z
" style="fill:#e377c2;opacity:0.9;"/>
   </g>
   <g id="patch_80">
    <path clip-path="url(#p369cd0a6d4)" d="M 713.824645 534.2 
L 723.475216 534.2 
L 723.475216 534.056277 
L 713.824645 534.056277 
z
" style="fill:#e377c2;opacity:0.9;"/>
   </g>
   <g id="patch_81">
    <path clip-path="url(#p369cd0a6d4)" d="M 821.053208 534.2 
L 830.703778 534.2 
L 830.703778 533.946247 
L 821.053208 533.946247 
z
" style="fill:#e377c2;opacity:0.9;"/>
   </g>
   <g id="patch_82">
    <path clip-path="url(#p369cd0a6d4)" d="M 928.28177 534.2 
L 937.932341 534.2 
L 937.932341 533.74253 
L 928.28177 533.74253 
z
" style="fill:#e377c2;opacity:0.9;"/>
   </g>
   <g id="patch_83">
    <path clip-path="url(#p369cd0a6d4)" d="M 1035.510333 534.2 
L 1045.160903 534.2 
L 1045.160903 533.656347 
L 1035.510333 533.656347 
z
" style="fill:#e377c2;opacity:0.9;"/>
   </g>
   <g id="patch_84">
    <path clip-path="url(#p369cd0a6d4)" d="M 1142.738895 534.2 
L 1152.389466 534.2 
L 1152.389466 532.791681 
L 1142.738895 532.791681 
z
" style="fill:#e377c2;opacity:0.9;"/>
   </g>
   <g id="patch_85">
    <path clip-path="url(#p369cd0a6d4)" d="M 1249.967458 534.2 
L 1259.618028 534.2 
L 1259.618028 531.86128 
L 1249.967458 531.86128 
z
" style="fill:#e377c2;opacity:0.9;"/>
   </g>
   <g id="patch_86">
    <path clip-path="url(#p369cd0a6d4)" d="M 1357.19602 534.2 
L 1366.846591 534.2 
L 1366.846591 530.808124 
L 1357.19602 530.808124 
z
" style="fill:#e377c2;opacity:0.9;"/>
   </g>
   <g id="matplotlib.axis_1">
    <g id="xtick_1">
     <g id="line2d_1">
      <defs>
       <path d="M 0 0 
L 0 3.5 
" id="ma8c1427b0b" style="stroke:#000000;stroke-width:0.8;"/>
      </defs>
      <g>
       <use style="stroke:#000000;stroke-width:0.8;" x="126.340797" xlink:href="#ma8c1427b0b" y="534.2"/>
      </g>
     </g>
     <g id="text_1">
      <!-- 1.0E+01 -->
      <defs>
       <path d="M 12.40625 8.296875 
L 28.515625 8.296875 
L 28.515625 63.921875 
L 10.984375 60.40625 
L 10.984375 69.390625 
L 28.421875 72.90625 
L 38.28125 72.90625 
L 38.28125 8.296875 
L 54.390625 8.296875 
L 54.390625 0 
L 12.40625 0 
z
" id="DejaVuSans-49"/>
       <path d="M 10.6875 12.40625 
L 21 12.40625 
L 21 0 
L 10.6875 0 
z
" id="DejaVuSans-46"/>
       <path d="M 31.78125 66.40625 
Q 24.171875 66.40625 20.328125 58.90625 
Q 16.5 51.421875 16.5 36.375 
Q 16.5 21.390625 20.328125 13.890625 
Q 24.171875 6.390625 31.78125 6.390625 
Q 39.453125 6.390625 43.28125 13.890625 
Q 47.125 21.390625 47.125 36.375 
Q 47.125 51.421875 43.28125 58.90625 
Q 39.453125 66.40625 31.78125 66.40625 
z
M 31.78125 74.21875 
Q 44.046875 74.21875 50.515625 64.515625 
Q 56.984375 54.828125 56.984375 36.375 
Q 56.984375 17.96875 50.515625 8.265625 
Q 44.046875 -1.421875 31.78125 -1.421875 
Q 19.53125 -1.421875 13.0625 8.265625 
Q 6.59375 17.96875 6.59375 36.375 
Q 6.59375 54.828125 13.0625 64.515625 
Q 19.53125 74.21875 31.78125 74.21875 
z
" id="DejaVuSans-48"/>
       <path d="M 9.8125 72.90625 
L 55.90625 72.90625 
L 55.90625 64.59375 
L 19.671875 64.59375 
L 19.671875 43.015625 
L 54.390625 43.015625 
L 54.390625 34.71875 
L 19.671875 34.71875 
L 19.671875 8.296875 
L 56.78125 8.296875 
L 56.78125 0 
L 9.8125 0 
z
" id="DejaVuSans-69"/>
       <path d="M 46 62.703125 
L 46 35.5 
L 73.1875 35.5 
L 73.1875 27.203125 
L 46 27.203125 
L 46 0 
L 37.796875 0 
L 37.796875 27.203125 
L 10.59375 27.203125 
L 10.59375 35.5 
L 37.796875 35.5 
L 37.796875 62.703125 
z
" id="DejaVuSans-43"/>
      </defs>
      <g transform="translate(104.677516 548.798437)scale(0.1 -0.1)">
       <use xlink:href="#DejaVuSans-49"/>
       <use x="63.623047" xlink:href="#DejaVuSans-46"/>
       <use x="95.410156" xlink:href="#DejaVuSans-48"/>
       <use x="159.033203" xlink:href="#DejaVuSans-69"/>
       <use x="222.216797" xlink:href="#DejaVuSans-43"/>
       <use x="306.005859" xlink:href="#DejaVuSans-48"/>
       <use x="369.628906" xlink:href="#DejaVuSans-49"/>
      </g>
     </g>
    </g>
    <g id="xtick_2">
     <g id="line2d_2">
      <g>
       <use style="stroke:#000000;stroke-width:0.8;" x="233.56936" xlink:href="#ma8c1427b0b" y="534.2"/>
      </g>
     </g>
     <g id="text_2">
      <!-- 2.5E+01 -->
      <defs>
       <path d="M 19.1875 8.296875 
L 53.609375 8.296875 
L 53.609375 0 
L 7.328125 0 
L 7.328125 8.296875 
Q 12.9375 14.109375 22.625 23.890625 
Q 32.328125 33.6875 34.8125 36.53125 
Q 39.546875 41.84375 41.421875 45.53125 
Q 43.3125 49.21875 43.3125 52.78125 
Q 43.3125 58.59375 39.234375 62.25 
Q 35.15625 65.921875 28.609375 65.921875 
Q 23.96875 65.921875 18.8125 64.3125 
Q 13.671875 62.703125 7.8125 59.421875 
L 7.8125 69.390625 
Q 13.765625 71.78125 18.9375 73 
Q 24.125 74.21875 28.421875 74.21875 
Q 39.75 74.21875 46.484375 68.546875 
Q 53.21875 62.890625 53.21875 53.421875 
Q 53.21875 48.921875 51.53125 44.890625 
Q 49.859375 40.875 45.40625 35.40625 
Q 44.1875 33.984375 37.640625 27.21875 
Q 31.109375 20.453125 19.1875 8.296875 
z
" id="DejaVuSans-50"/>
       <path d="M 10.796875 72.90625 
L 49.515625 72.90625 
L 49.515625 64.59375 
L 19.828125 64.59375 
L 19.828125 46.734375 
Q 21.96875 47.46875 24.109375 47.828125 
Q 26.265625 48.1875 28.421875 48.1875 
Q 40.625 48.1875 47.75 41.5 
Q 54.890625 34.8125 54.890625 23.390625 
Q 54.890625 11.625 47.5625 5.09375 
Q 40.234375 -1.421875 26.90625 -1.421875 
Q 22.3125 -1.421875 17.546875 -0.640625 
Q 12.796875 0.140625 7.71875 1.703125 
L 7.71875 11.625 
Q 12.109375 9.234375 16.796875 8.0625 
Q 21.484375 6.890625 26.703125 6.890625 
Q 35.15625 6.890625 40.078125 11.328125 
Q 45.015625 15.765625 45.015625 23.390625 
Q 45.015625 31 40.078125 35.4375 
Q 35.15625 39.890625 26.703125 39.890625 
Q 22.75 39.890625 18.8125 39.015625 
Q 14.890625 38.140625 10.796875 36.28125 
z
" id="DejaVuSans-53"/>
      </defs>
      <g transform="translate(211.906078 548.798437)scale(0.1 -0.1)">
       <use xlink:href="#DejaVuSans-50"/>
       <use x="63.623047" xlink:href="#DejaVuSans-46"/>
       <use x="95.410156" xlink:href="#DejaVuSans-53"/>
       <use x="159.033203" xlink:href="#DejaVuSans-69"/>
       <use x="222.216797" xlink:href="#DejaVuSans-43"/>
       <use x="306.005859" xlink:href="#DejaVuSans-48"/>
       <use x="369.628906" xlink:href="#DejaVuSans-49"/>
      </g>
     </g>
    </g>
    <g id="xtick_3">
     <g id="line2d_3">
      <g>
       <use style="stroke:#000000;stroke-width:0.8;" x="340.797922" xlink:href="#ma8c1427b0b" y="534.2"/>
      </g>
     </g>
     <g id="text_3">
      <!-- 5.0E+01 -->
      <g transform="translate(319.134641 548.798437)scale(0.1 -0.1)">
       <use xlink:href="#DejaVuSans-53"/>
       <use x="63.623047" xlink:href="#DejaVuSans-46"/>
       <use x="95.410156" xlink:href="#DejaVuSans-48"/>
       <use x="159.033203" xlink:href="#DejaVuSans-69"/>
       <use x="222.216797" xlink:href="#DejaVuSans-43"/>
       <use x="306.005859" xlink:href="#DejaVuSans-48"/>
       <use x="369.628906" xlink:href="#DejaVuSans-49"/>
      </g>
     </g>
    </g>
    <g id="xtick_4">
     <g id="line2d_4">
      <g>
       <use style="stroke:#000000;stroke-width:0.8;" x="448.026485" xlink:href="#ma8c1427b0b" y="534.2"/>
      </g>
     </g>
     <g id="text_4">
      <!-- 7.5E+01 -->
      <defs>
       <path d="M 8.203125 72.90625 
L 55.078125 72.90625 
L 55.078125 68.703125 
L 28.609375 0 
L 18.3125 0 
L 43.21875 64.59375 
L 8.203125 64.59375 
z
" id="DejaVuSans-55"/>
      </defs>
      <g transform="translate(426.363203 548.798437)scale(0.1 -0.1)">
       <use xlink:href="#DejaVuSans-55"/>
       <use x="63.623047" xlink:href="#DejaVuSans-46"/>
       <use x="95.410156" xlink:href="#DejaVuSans-53"/>
       <use x="159.033203" xlink:href="#DejaVuSans-69"/>
       <use x="222.216797" xlink:href="#DejaVuSans-43"/>
       <use x="306.005859" xlink:href="#DejaVuSans-48"/>
       <use x="369.628906" xlink:href="#DejaVuSans-49"/>
      </g>
     </g>
    </g>
    <g id="xtick_5">
     <g id="line2d_5">
      <g>
       <use style="stroke:#000000;stroke-width:0.8;" x="555.255047" xlink:href="#ma8c1427b0b" y="534.2"/>
      </g>
     </g>
     <g id="text_5">
      <!-- 1.0E+02 -->
      <g transform="translate(533.591766 548.798437)scale(0.1 -0.1)">
       <use xlink:href="#DejaVuSans-49"/>
       <use x="63.623047" xlink:href="#DejaVuSans-46"/>
       <use x="95.410156" xlink:href="#DejaVuSans-48"/>
       <use x="159.033203" xlink:href="#DejaVuSans-69"/>
       <use x="222.216797" xlink:href="#DejaVuSans-43"/>
       <use x="306.005859" xlink:href="#DejaVuSans-48"/>
       <use x="369.628906" xlink:href="#DejaVuSans-50"/>
      </g>
     </g>
    </g>
    <g id="xtick_6">
     <g id="line2d_6">
      <g>
       <use style="stroke:#000000;stroke-width:0.8;" x="662.48361" xlink:href="#ma8c1427b0b" y="534.2"/>
      </g>
     </g>
     <g id="text_6">
      <!-- 2.5E+02 -->
      <g transform="translate(640.820328 548.798437)scale(0.1 -0.1)">
       <use xlink:href="#DejaVuSans-50"/>
       <use x="63.623047" xlink:href="#DejaVuSans-46"/>
       <use x="95.410156" xlink:href="#DejaVuSans-53"/>
       <use x="159.033203" xlink:href="#DejaVuSans-69"/>
       <use x="222.216797" xlink:href="#DejaVuSans-43"/>
       <use x="306.005859" xlink:href="#DejaVuSans-48"/>
       <use x="369.628906" xlink:href="#DejaVuSans-50"/>
      </g>
     </g>
    </g>
    <g id="xtick_7">
     <g id="line2d_7">
      <g>
       <use style="stroke:#000000;stroke-width:0.8;" x="769.712172" xlink:href="#ma8c1427b0b" y="534.2"/>
      </g>
     </g>
     <g id="text_7">
      <!-- 5.0E+02 -->
      <g transform="translate(748.048891 548.798437)scale(0.1 -0.1)">
       <use xlink:href="#DejaVuSans-53"/>
       <use x="63.623047" xlink:href="#DejaVuSans-46"/>
       <use x="95.410156" xlink:href="#DejaVuSans-48"/>
       <use x="159.033203" xlink:href="#DejaVuSans-69"/>
       <use x="222.216797" xlink:href="#DejaVuSans-43"/>
       <use x="306.005859" xlink:href="#DejaVuSans-48"/>
       <use x="369.628906" xlink:href="#DejaVuSans-50"/>
      </g>
     </g>
    </g>
    <g id="xtick_8">
     <g id="line2d_8">
      <g>
       <use style="stroke:#000000;stroke-width:0.8;" x="876.940735" xlink:href="#ma8c1427b0b" y="534.2"/>
      </g>
     </g>
     <g id="text_8">
      <!-- 7.5E+02 -->
      <g transform="translate(855.277453 548.798437)scale(0.1 -0.1)">
       <use xlink:href="#DejaVuSans-55"/>
       <use x="63.623047" xlink:href="#DejaVuSans-46"/>
       <use x="95.410156" xlink:href="#DejaVuSans-53"/>
       <use x="159.033203" xlink:href="#DejaVuSans-69"/>
       <use x="222.216797" xlink:href="#DejaVuSans-43"/>
       <use x="306.005859" xlink:href="#DejaVuSans-48"/>
       <use x="369.628906" xlink:href="#DejaVuSans-50"/>
      </g>
     </g>
    </g>
    <g id="xtick_9">
     <g id="line2d_9">
      <g>
       <use style="stroke:#000000;stroke-width:0.8;" x="984.169297" xlink:href="#ma8c1427b0b" y="534.2"/>
      </g>
     </g>
     <g id="text_9">
      <!-- 1.0E+03 -->
      <defs>
       <path d="M 40.578125 39.3125 
Q 47.65625 37.796875 51.625 33 
Q 55.609375 28.21875 55.609375 21.1875 
Q 55.609375 10.40625 48.1875 4.484375 
Q 40.765625 -1.421875 27.09375 -1.421875 
Q 22.515625 -1.421875 17.65625 -0.515625 
Q 12.796875 0.390625 7.625 2.203125 
L 7.625 11.71875 
Q 11.71875 9.328125 16.59375 8.109375 
Q 21.484375 6.890625 26.8125 6.890625 
Q 36.078125 6.890625 40.9375 10.546875 
Q 45.796875 14.203125 45.796875 21.1875 
Q 45.796875 27.640625 41.28125 31.265625 
Q 36.765625 34.90625 28.71875 34.90625 
L 20.21875 34.90625 
L 20.21875 43.015625 
L 29.109375 43.015625 
Q 36.375 43.015625 40.234375 45.921875 
Q 44.09375 48.828125 44.09375 54.296875 
Q 44.09375 59.90625 40.109375 62.90625 
Q 36.140625 65.921875 28.71875 65.921875 
Q 24.65625 65.921875 20.015625 65.03125 
Q 15.375 64.15625 9.8125 62.3125 
L 9.8125 71.09375 
Q 15.4375 72.65625 20.34375 73.4375 
Q 25.25 74.21875 29.59375 74.21875 
Q 40.828125 74.21875 47.359375 69.109375 
Q 53.90625 64.015625 53.90625 55.328125 
Q 53.90625 49.265625 50.4375 45.09375 
Q 46.96875 40.921875 40.578125 39.3125 
z
" id="DejaVuSans-51"/>
      </defs>
      <g transform="translate(962.506016 548.798437)scale(0.1 -0.1)">
       <use xlink:href="#DejaVuSans-49"/>
       <use x="63.623047" xlink:href="#DejaVuSans-46"/>
       <use x="95.410156" xlink:href="#DejaVuSans-48"/>
       <use x="159.033203" xlink:href="#DejaVuSans-69"/>
       <use x="222.216797" xlink:href="#DejaVuSans-43"/>
       <use x="306.005859" xlink:href="#DejaVuSans-48"/>
       <use x="369.628906" xlink:href="#DejaVuSans-51"/>
      </g>
     </g>
    </g>
    <g id="xtick_10">
     <g id="line2d_10">
      <g>
       <use style="stroke:#000000;stroke-width:0.8;" x="1091.39786" xlink:href="#ma8c1427b0b" y="534.2"/>
      </g>
     </g>
     <g id="text_10">
      <!-- 2.5E+03 -->
      <g transform="translate(1069.734578 548.798437)scale(0.1 -0.1)">
       <use xlink:href="#DejaVuSans-50"/>
       <use x="63.623047" xlink:href="#DejaVuSans-46"/>
       <use x="95.410156" xlink:href="#DejaVuSans-53"/>
       <use x="159.033203" xlink:href="#DejaVuSans-69"/>
       <use x="222.216797" xlink:href="#DejaVuSans-43"/>
       <use x="306.005859" xlink:href="#DejaVuSans-48"/>
       <use x="369.628906" xlink:href="#DejaVuSans-51"/>
      </g>
     </g>
    </g>
    <g id="xtick_11">
     <g id="line2d_11">
      <g>
       <use style="stroke:#000000;stroke-width:0.8;" x="1198.626422" xlink:href="#ma8c1427b0b" y="534.2"/>
      </g>
     </g>
     <g id="text_11">
      <!-- 5.0E+03 -->
      <g transform="translate(1176.963141 548.798437)scale(0.1 -0.1)">
       <use xlink:href="#DejaVuSans-53"/>
       <use x="63.623047" xlink:href="#DejaVuSans-46"/>
       <use x="95.410156" xlink:href="#DejaVuSans-48"/>
       <use x="159.033203" xlink:href="#DejaVuSans-69"/>
       <use x="222.216797" xlink:href="#DejaVuSans-43"/>
       <use x="306.005859" xlink:href="#DejaVuSans-48"/>
       <use x="369.628906" xlink:href="#DejaVuSans-51"/>
      </g>
     </g>
    </g>
    <g id="xtick_12">
     <g id="line2d_12">
      <g>
       <use style="stroke:#000000;stroke-width:0.8;" x="1305.854985" xlink:href="#ma8c1427b0b" y="534.2"/>
      </g>
     </g>
     <g id="text_12">
      <!-- 7.5E+03 -->
      <g transform="translate(1284.191703 548.798437)scale(0.1 -0.1)">
       <use xlink:href="#DejaVuSans-55"/>
       <use x="63.623047" xlink:href="#DejaVuSans-46"/>
       <use x="95.410156" xlink:href="#DejaVuSans-53"/>
       <use x="159.033203" xlink:href="#DejaVuSans-69"/>
       <use x="222.216797" xlink:href="#DejaVuSans-43"/>
       <use x="306.005859" xlink:href="#DejaVuSans-48"/>
       <use x="369.628906" xlink:href="#DejaVuSans-51"/>
      </g>
     </g>
    </g>
    <g id="text_13">
     <!-- Quantidade de elementos -->
     <defs>
      <path d="M 39.40625 66.21875 
Q 28.65625 66.21875 22.328125 58.203125 
Q 16.015625 50.203125 16.015625 36.375 
Q 16.015625 22.609375 22.328125 14.59375 
Q 28.65625 6.59375 39.40625 6.59375 
Q 50.140625 6.59375 56.421875 14.59375 
Q 62.703125 22.609375 62.703125 36.375 
Q 62.703125 50.203125 56.421875 58.203125 
Q 50.140625 66.21875 39.40625 66.21875 
z
M 53.21875 1.3125 
L 66.21875 -12.890625 
L 54.296875 -12.890625 
L 43.5 -1.21875 
Q 41.890625 -1.3125 41.03125 -1.359375 
Q 40.1875 -1.421875 39.40625 -1.421875 
Q 24.03125 -1.421875 14.8125 8.859375 
Q 5.609375 19.140625 5.609375 36.375 
Q 5.609375 53.65625 14.8125 63.9375 
Q 24.03125 74.21875 39.40625 74.21875 
Q 54.734375 74.21875 63.90625 63.9375 
Q 73.09375 53.65625 73.09375 36.375 
Q 73.09375 23.6875 67.984375 14.640625 
Q 62.890625 5.609375 53.21875 1.3125 
z
" id="DejaVuSans-81"/>
      <path d="M 8.5 21.578125 
L 8.5 54.6875 
L 17.484375 54.6875 
L 17.484375 21.921875 
Q 17.484375 14.15625 20.5 10.265625 
Q 23.53125 6.390625 29.59375 6.390625 
Q 36.859375 6.390625 41.078125 11.03125 
Q 45.3125 15.671875 45.3125 23.6875 
L 45.3125 54.6875 
L 54.296875 54.6875 
L 54.296875 0 
L 45.3125 0 
L 45.3125 8.40625 
Q 42.046875 3.421875 37.71875 1 
Q 33.40625 -1.421875 27.6875 -1.421875 
Q 18.265625 -1.421875 13.375 4.4375 
Q 8.5 10.296875 8.5 21.578125 
z
M 31.109375 56 
z
" id="DejaVuSans-117"/>
      <path d="M 34.28125 27.484375 
Q 23.390625 27.484375 19.1875 25 
Q 14.984375 22.515625 14.984375 16.5 
Q 14.984375 11.71875 18.140625 8.90625 
Q 21.296875 6.109375 26.703125 6.109375 
Q 34.1875 6.109375 38.703125 11.40625 
Q 43.21875 16.703125 43.21875 25.484375 
L 43.21875 27.484375 
z
M 52.203125 31.203125 
L 52.203125 0 
L 43.21875 0 
L 43.21875 8.296875 
Q 40.140625 3.328125 35.546875 0.953125 
Q 30.953125 -1.421875 24.3125 -1.421875 
Q 15.921875 -1.421875 10.953125 3.296875 
Q 6 8.015625 6 15.921875 
Q 6 25.140625 12.171875 29.828125 
Q 18.359375 34.515625 30.609375 34.515625 
L 43.21875 34.515625 
L 43.21875 35.40625 
Q 43.21875 41.609375 39.140625 45 
Q 35.0625 48.390625 27.6875 48.390625 
Q 23 48.390625 18.546875 47.265625 
Q 14.109375 46.140625 10.015625 43.890625 
L 10.015625 52.203125 
Q 14.9375 54.109375 19.578125 55.046875 
Q 24.21875 56 28.609375 56 
Q 40.484375 56 46.34375 49.84375 
Q 52.203125 43.703125 52.203125 31.203125 
z
" id="DejaVuSans-97"/>
      <path d="M 54.890625 33.015625 
L 54.890625 0 
L 45.90625 0 
L 45.90625 32.71875 
Q 45.90625 40.484375 42.875 44.328125 
Q 39.84375 48.1875 33.796875 48.1875 
Q 26.515625 48.1875 22.3125 43.546875 
Q 18.109375 38.921875 18.109375 30.90625 
L 18.109375 0 
L 9.078125 0 
L 9.078125 54.6875 
L 18.109375 54.6875 
L 18.109375 46.1875 
Q 21.34375 51.125 25.703125 53.5625 
Q 30.078125 56 35.796875 56 
Q 45.21875 56 50.046875 50.171875 
Q 54.890625 44.34375 54.890625 33.015625 
z
" id="DejaVuSans-110"/>
      <path d="M 18.3125 70.21875 
L 18.3125 54.6875 
L 36.8125 54.6875 
L 36.8125 47.703125 
L 18.3125 47.703125 
L 18.3125 18.015625 
Q 18.3125 11.328125 20.140625 9.421875 
Q 21.96875 7.515625 27.59375 7.515625 
L 36.8125 7.515625 
L 36.8125 0 
L 27.59375 0 
Q 17.1875 0 13.234375 3.875 
Q 9.28125 7.765625 9.28125 18.015625 
L 9.28125 47.703125 
L 2.6875 47.703125 
L 2.6875 54.6875 
L 9.28125 54.6875 
L 9.28125 70.21875 
z
" id="DejaVuSans-116"/>
      <path d="M 9.421875 54.6875 
L 18.40625 54.6875 
L 18.40625 0 
L 9.421875 0 
z
M 9.421875 75.984375 
L 18.40625 75.984375 
L 18.40625 64.59375 
L 9.421875 64.59375 
z
" id="DejaVuSans-105"/>
      <path d="M 45.40625 46.390625 
L 45.40625 75.984375 
L 54.390625 75.984375 
L 54.390625 0 
L 45.40625 0 
L 45.40625 8.203125 
Q 42.578125 3.328125 38.25 0.953125 
Q 33.9375 -1.421875 27.875 -1.421875 
Q 17.96875 -1.421875 11.734375 6.484375 
Q 5.515625 14.40625 5.515625 27.296875 
Q 5.515625 40.1875 11.734375 48.09375 
Q 17.96875 56 27.875 56 
Q 33.9375 56 38.25 53.625 
Q 42.578125 51.265625 45.40625 46.390625 
z
M 14.796875 27.296875 
Q 14.796875 17.390625 18.875 11.75 
Q 22.953125 6.109375 30.078125 6.109375 
Q 37.203125 6.109375 41.296875 11.75 
Q 45.40625 17.390625 45.40625 27.296875 
Q 45.40625 37.203125 41.296875 42.84375 
Q 37.203125 48.484375 30.078125 48.484375 
Q 22.953125 48.484375 18.875 42.84375 
Q 14.796875 37.203125 14.796875 27.296875 
z
" id="DejaVuSans-100"/>
      <path d="M 56.203125 29.59375 
L 56.203125 25.203125 
L 14.890625 25.203125 
Q 15.484375 15.921875 20.484375 11.0625 
Q 25.484375 6.203125 34.421875 6.203125 
Q 39.59375 6.203125 44.453125 7.46875 
Q 49.3125 8.734375 54.109375 11.28125 
L 54.109375 2.78125 
Q 49.265625 0.734375 44.1875 -0.34375 
Q 39.109375 -1.421875 33.890625 -1.421875 
Q 20.796875 -1.421875 13.15625 6.1875 
Q 5.515625 13.8125 5.515625 26.8125 
Q 5.515625 40.234375 12.765625 48.109375 
Q 20.015625 56 32.328125 56 
Q 43.359375 56 49.78125 48.890625 
Q 56.203125 41.796875 56.203125 29.59375 
z
M 47.21875 32.234375 
Q 47.125 39.59375 43.09375 43.984375 
Q 39.0625 48.390625 32.421875 48.390625 
Q 24.90625 48.390625 20.390625 44.140625 
Q 15.875 39.890625 15.1875 32.171875 
z
" id="DejaVuSans-101"/>
      <path id="DejaVuSans-32"/>
      <path d="M 9.421875 75.984375 
L 18.40625 75.984375 
L 18.40625 0 
L 9.421875 0 
z
" id="DejaVuSans-108"/>
      <path d="M 52 44.1875 
Q 55.375 50.25 60.0625 53.125 
Q 64.75 56 71.09375 56 
Q 79.640625 56 84.28125 50.015625 
Q 88.921875 44.046875 88.921875 33.015625 
L 88.921875 0 
L 79.890625 0 
L 79.890625 32.71875 
Q 79.890625 40.578125 77.09375 44.375 
Q 74.3125 48.1875 68.609375 48.1875 
Q 61.625 48.1875 57.5625 43.546875 
Q 53.515625 38.921875 53.515625 30.90625 
L 53.515625 0 
L 44.484375 0 
L 44.484375 32.71875 
Q 44.484375 40.625 41.703125 44.40625 
Q 38.921875 48.1875 33.109375 48.1875 
Q 26.21875 48.1875 22.15625 43.53125 
Q 18.109375 38.875 18.109375 30.90625 
L 18.109375 0 
L 9.078125 0 
L 9.078125 54.6875 
L 18.109375 54.6875 
L 18.109375 46.1875 
Q 21.1875 51.21875 25.484375 53.609375 
Q 29.78125 56 35.6875 56 
Q 41.65625 56 45.828125 52.96875 
Q 50 49.953125 52 44.1875 
z
" id="DejaVuSans-109"/>
      <path d="M 30.609375 48.390625 
Q 23.390625 48.390625 19.1875 42.75 
Q 14.984375 37.109375 14.984375 27.296875 
Q 14.984375 17.484375 19.15625 11.84375 
Q 23.34375 6.203125 30.609375 6.203125 
Q 37.796875 6.203125 41.984375 11.859375 
Q 46.1875 17.53125 46.1875 27.296875 
Q 46.1875 37.015625 41.984375 42.703125 
Q 37.796875 48.390625 30.609375 48.390625 
z
M 30.609375 56 
Q 42.328125 56 49.015625 48.375 
Q 55.71875 40.765625 55.71875 27.296875 
Q 55.71875 13.875 49.015625 6.21875 
Q 42.328125 -1.421875 30.609375 -1.421875 
Q 18.84375 -1.421875 12.171875 6.21875 
Q 5.515625 13.875 5.515625 27.296875 
Q 5.515625 40.765625 12.171875 48.375 
Q 18.84375 56 30.609375 56 
z
" id="DejaVuSans-111"/>
      <path d="M 44.28125 53.078125 
L 44.28125 44.578125 
Q 40.484375 46.53125 36.375 47.5 
Q 32.28125 48.484375 27.875 48.484375 
Q 21.1875 48.484375 17.84375 46.4375 
Q 14.5 44.390625 14.5 40.28125 
Q 14.5 37.15625 16.890625 35.375 
Q 19.28125 33.59375 26.515625 31.984375 
L 29.59375 31.296875 
Q 39.15625 29.25 43.1875 25.515625 
Q 47.21875 21.78125 47.21875 15.09375 
Q 47.21875 7.46875 41.1875 3.015625 
Q 35.15625 -1.421875 24.609375 -1.421875 
Q 20.21875 -1.421875 15.453125 -0.5625 
Q 10.6875 0.296875 5.421875 2 
L 5.421875 11.28125 
Q 10.40625 8.6875 15.234375 7.390625 
Q 20.0625 6.109375 24.8125 6.109375 
Q 31.15625 6.109375 34.5625 8.28125 
Q 37.984375 10.453125 37.984375 14.40625 
Q 37.984375 18.0625 35.515625 20.015625 
Q 33.0625 21.96875 24.703125 23.78125 
L 21.578125 24.515625 
Q 13.234375 26.265625 9.515625 29.90625 
Q 5.8125 33.546875 5.8125 39.890625 
Q 5.8125 47.609375 11.28125 51.796875 
Q 16.75 56 26.8125 56 
Q 31.78125 56 36.171875 55.265625 
Q 40.578125 54.546875 44.28125 53.078125 
z
" id="DejaVuSans-115"/>
     </defs>
     <g transform="translate(678.425781 562.476562)scale(0.1 -0.1)">
      <use xlink:href="#DejaVuSans-81"/>
      <use x="78.710938" xlink:href="#DejaVuSans-117"/>
      <use x="142.089844" xlink:href="#DejaVuSans-97"/>
      <use x="203.369141" xlink:href="#DejaVuSans-110"/>
      <use x="266.748047" xlink:href="#DejaVuSans-116"/>
      <use x="305.957031" xlink:href="#DejaVuSans-105"/>
      <use x="333.740234" xlink:href="#DejaVuSans-100"/>
      <use x="397.216797" xlink:href="#DejaVuSans-97"/>
      <use x="458.496094" xlink:href="#DejaVuSans-100"/>
      <use x="521.972656" xlink:href="#DejaVuSans-101"/>
      <use x="583.496094" xlink:href="#DejaVuSans-32"/>
      <use x="615.283203" xlink:href="#DejaVuSans-100"/>
      <use x="678.759766" xlink:href="#DejaVuSans-101"/>
      <use x="740.283203" xlink:href="#DejaVuSans-32"/>
      <use x="772.070312" xlink:href="#DejaVuSans-101"/>
      <use x="833.59375" xlink:href="#DejaVuSans-108"/>
      <use x="861.376953" xlink:href="#DejaVuSans-101"/>
      <use x="922.900391" xlink:href="#DejaVuSans-109"/>
      <use x="1020.3125" xlink:href="#DejaVuSans-101"/>
      <use x="1081.835938" xlink:href="#DejaVuSans-110"/>
      <use x="1145.214844" xlink:href="#DejaVuSans-116"/>
      <use x="1184.423828" xlink:href="#DejaVuSans-111"/>
      <use x="1245.605469" xlink:href="#DejaVuSans-115"/>
     </g>
    </g>
   </g>
   <g id="matplotlib.axis_2">
    <g id="ytick_1">
     <g id="line2d_13">
      <defs>
       <path d="M 0 0 
L -3.5 0 
" id="ma7ea60027e" style="stroke:#000000;stroke-width:0.8;"/>
      </defs>
      <g>
       <use style="stroke:#000000;stroke-width:0.8;" x="57.425" xlink:href="#ma7ea60027e" y="534.2"/>
      </g>
     </g>
     <g id="text_14">
      <!-- 0 -->
      <g transform="translate(44.0625 537.999219)scale(0.1 -0.1)">
       <use xlink:href="#DejaVuSans-48"/>
      </g>
     </g>
    </g>
    <g id="ytick_2">
     <g id="line2d_14">
      <g>
       <use style="stroke:#000000;stroke-width:0.8;" x="57.425" xlink:href="#ma7ea60027e" y="452.692123"/>
      </g>
     </g>
     <g id="text_15">
      <!-- 1000 -->
      <g transform="translate(24.975 456.491341)scale(0.1 -0.1)">
       <use xlink:href="#DejaVuSans-49"/>
       <use x="63.623047" xlink:href="#DejaVuSans-48"/>
       <use x="127.246094" xlink:href="#DejaVuSans-48"/>
       <use x="190.869141" xlink:href="#DejaVuSans-48"/>
      </g>
     </g>
    </g>
    <g id="ytick_3">
     <g id="line2d_15">
      <g>
       <use style="stroke:#000000;stroke-width:0.8;" x="57.425" xlink:href="#ma7ea60027e" y="371.184245"/>
      </g>
     </g>
     <g id="text_16">
      <!-- 2000 -->
      <g transform="translate(24.975 374.983464)scale(0.1 -0.1)">
       <use xlink:href="#DejaVuSans-50"/>
       <use x="63.623047" xlink:href="#DejaVuSans-48"/>
       <use x="127.246094" xlink:href="#DejaVuSans-48"/>
       <use x="190.869141" xlink:href="#DejaVuSans-48"/>
      </g>
     </g>
    </g>
    <g id="ytick_4">
     <g id="line2d_16">
      <g>
       <use style="stroke:#000000;stroke-width:0.8;" x="57.425" xlink:href="#ma7ea60027e" y="289.676368"/>
      </g>
     </g>
     <g id="text_17">
      <!-- 3000 -->
      <g transform="translate(24.975 293.475587)scale(0.1 -0.1)">
       <use xlink:href="#DejaVuSans-51"/>
       <use x="63.623047" xlink:href="#DejaVuSans-48"/>
       <use x="127.246094" xlink:href="#DejaVuSans-48"/>
       <use x="190.869141" xlink:href="#DejaVuSans-48"/>
      </g>
     </g>
    </g>
    <g id="ytick_5">
     <g id="line2d_17">
      <g>
       <use style="stroke:#000000;stroke-width:0.8;" x="57.425" xlink:href="#ma7ea60027e" y="208.168491"/>
      </g>
     </g>
     <g id="text_18">
      <!-- 4000 -->
      <defs>
       <path d="M 37.796875 64.3125 
L 12.890625 25.390625 
L 37.796875 25.390625 
z
M 35.203125 72.90625 
L 47.609375 72.90625 
L 47.609375 25.390625 
L 58.015625 25.390625 
L 58.015625 17.1875 
L 47.609375 17.1875 
L 47.609375 0 
L 37.796875 0 
L 37.796875 17.1875 
L 4.890625 17.1875 
L 4.890625 26.703125 
z
" id="DejaVuSans-52"/>
      </defs>
      <g transform="translate(24.975 211.967709)scale(0.1 -0.1)">
       <use xlink:href="#DejaVuSans-52"/>
       <use x="63.623047" xlink:href="#DejaVuSans-48"/>
       <use x="127.246094" xlink:href="#DejaVuSans-48"/>
       <use x="190.869141" xlink:href="#DejaVuSans-48"/>
      </g>
     </g>
    </g>
    <g id="ytick_6">
     <g id="line2d_18">
      <g>
       <use style="stroke:#000000;stroke-width:0.8;" x="57.425" xlink:href="#ma7ea60027e" y="126.660613"/>
      </g>
     </g>
     <g id="text_19">
      <!-- 5000 -->
      <g transform="translate(24.975 130.459832)scale(0.1 -0.1)">
       <use xlink:href="#DejaVuSans-53"/>
       <use x="63.623047" xlink:href="#DejaVuSans-48"/>
       <use x="127.246094" xlink:href="#DejaVuSans-48"/>
       <use x="190.869141" xlink:href="#DejaVuSans-48"/>
      </g>
     </g>
    </g>
    <g id="ytick_7">
     <g id="line2d_19">
      <g>
       <use style="stroke:#000000;stroke-width:0.8;" x="57.425" xlink:href="#ma7ea60027e" y="45.152736"/>
      </g>
     </g>
     <g id="text_20">
      <!-- 6000 -->
      <defs>
       <path d="M 33.015625 40.375 
Q 26.375 40.375 22.484375 35.828125 
Q 18.609375 31.296875 18.609375 23.390625 
Q 18.609375 15.53125 22.484375 10.953125 
Q 26.375 6.390625 33.015625 6.390625 
Q 39.65625 6.390625 43.53125 10.953125 
Q 47.40625 15.53125 47.40625 23.390625 
Q 47.40625 31.296875 43.53125 35.828125 
Q 39.65625 40.375 33.015625 40.375 
z
M 52.59375 71.296875 
L 52.59375 62.3125 
Q 48.875 64.0625 45.09375 64.984375 
Q 41.3125 65.921875 37.59375 65.921875 
Q 27.828125 65.921875 22.671875 59.328125 
Q 17.53125 52.734375 16.796875 39.40625 
Q 19.671875 43.65625 24.015625 45.921875 
Q 28.375 48.1875 33.59375 48.1875 
Q 44.578125 48.1875 50.953125 41.515625 
Q 57.328125 34.859375 57.328125 23.390625 
Q 57.328125 12.15625 50.6875 5.359375 
Q 44.046875 -1.421875 33.015625 -1.421875 
Q 20.359375 -1.421875 13.671875 8.265625 
Q 6.984375 17.96875 6.984375 36.375 
Q 6.984375 53.65625 15.1875 63.9375 
Q 23.390625 74.21875 37.203125 74.21875 
Q 40.921875 74.21875 44.703125 73.484375 
Q 48.484375 72.75 52.59375 71.296875 
z
" id="DejaVuSans-54"/>
      </defs>
      <g transform="translate(24.975 48.951955)scale(0.1 -0.1)">
       <use xlink:href="#DejaVuSans-54"/>
       <use x="63.623047" xlink:href="#DejaVuSans-48"/>
       <use x="127.246094" xlink:href="#DejaVuSans-48"/>
       <use x="190.869141" xlink:href="#DejaVuSans-48"/>
      </g>
     </g>
    </g>
    <g id="text_21">
     <!-- Tempo médio de execução (ms) -->
     <defs>
      <path d="M -0.296875 72.90625 
L 61.375 72.90625 
L 61.375 64.59375 
L 35.5 64.59375 
L 35.5 0 
L 25.59375 0 
L 25.59375 64.59375 
L -0.296875 64.59375 
z
" id="DejaVuSans-84"/>
      <path d="M 18.109375 8.203125 
L 18.109375 -20.796875 
L 9.078125 -20.796875 
L 9.078125 54.6875 
L 18.109375 54.6875 
L 18.109375 46.390625 
Q 20.953125 51.265625 25.265625 53.625 
Q 29.59375 56 35.59375 56 
Q 45.5625 56 51.78125 48.09375 
Q 58.015625 40.1875 58.015625 27.296875 
Q 58.015625 14.40625 51.78125 6.484375 
Q 45.5625 -1.421875 35.59375 -1.421875 
Q 29.59375 -1.421875 25.265625 0.953125 
Q 20.953125 3.328125 18.109375 8.203125 
z
M 48.6875 27.296875 
Q 48.6875 37.203125 44.609375 42.84375 
Q 40.53125 48.484375 33.40625 48.484375 
Q 26.265625 48.484375 22.1875 42.84375 
Q 18.109375 37.203125 18.109375 27.296875 
Q 18.109375 17.390625 22.1875 11.75 
Q 26.265625 6.109375 33.40625 6.109375 
Q 40.53125 6.109375 44.609375 11.75 
Q 48.6875 17.390625 48.6875 27.296875 
z
" id="DejaVuSans-112"/>
      <path d="M 56.203125 29.59375 
L 56.203125 25.203125 
L 14.890625 25.203125 
Q 15.484375 15.921875 20.484375 11.0625 
Q 25.484375 6.203125 34.421875 6.203125 
Q 39.59375 6.203125 44.453125 7.46875 
Q 49.3125 8.734375 54.109375 11.28125 
L 54.109375 2.78125 
Q 49.265625 0.734375 44.1875 -0.34375 
Q 39.109375 -1.421875 33.890625 -1.421875 
Q 20.796875 -1.421875 13.15625 6.1875 
Q 5.515625 13.8125 5.515625 26.8125 
Q 5.515625 40.234375 12.765625 48.109375 
Q 20.015625 56 32.328125 56 
Q 43.359375 56 49.78125 48.890625 
Q 56.203125 41.796875 56.203125 29.59375 
z
M 47.21875 32.234375 
Q 47.125 39.59375 43.09375 43.984375 
Q 39.0625 48.390625 32.421875 48.390625 
Q 24.90625 48.390625 20.390625 44.140625 
Q 15.875 39.890625 15.1875 32.171875 
z
M 38.53125 79.984375 
L 48.25 79.984375 
L 32.34375 61.625 
L 24.859375 61.625 
z
" id="DejaVuSans-233"/>
      <path d="M 54.890625 54.6875 
L 35.109375 28.078125 
L 55.90625 0 
L 45.3125 0 
L 29.390625 21.484375 
L 13.484375 0 
L 2.875 0 
L 24.125 28.609375 
L 4.6875 54.6875 
L 15.28125 54.6875 
L 29.78125 35.203125 
L 44.28125 54.6875 
z
" id="DejaVuSans-120"/>
      <path d="M 48.78125 52.59375 
L 48.78125 44.1875 
Q 44.96875 46.296875 41.140625 47.34375 
Q 37.3125 48.390625 33.40625 48.390625 
Q 24.65625 48.390625 19.8125 42.84375 
Q 14.984375 37.3125 14.984375 27.296875 
Q 14.984375 17.28125 19.8125 11.734375 
Q 24.65625 6.203125 33.40625 6.203125 
Q 37.3125 6.203125 41.140625 7.25 
Q 44.96875 8.296875 48.78125 10.40625 
L 48.78125 2.09375 
Q 45.015625 0.34375 40.984375 -0.53125 
Q 36.96875 -1.421875 32.421875 -1.421875 
Q 20.0625 -1.421875 12.78125 6.34375 
Q 5.515625 14.109375 5.515625 27.296875 
Q 5.515625 40.671875 12.859375 48.328125 
Q 20.21875 56 33.015625 56 
Q 37.15625 56 41.109375 55.140625 
Q 45.0625 54.296875 48.78125 52.59375 
z
" id="DejaVuSans-99"/>
      <path d="M 48.78125 52.59375 
L 48.78125 44.1875 
Q 44.96875 46.296875 41.140625 47.34375 
Q 37.3125 48.390625 33.40625 48.390625 
Q 24.65625 48.390625 19.8125 42.84375 
Q 14.984375 37.3125 14.984375 27.296875 
Q 14.984375 17.28125 19.8125 11.734375 
Q 24.65625 6.203125 33.40625 6.203125 
Q 37.3125 6.203125 41.140625 7.25 
Q 44.96875 8.296875 48.78125 10.40625 
L 48.78125 2.09375 
Q 45.015625 0.34375 40.984375 -0.53125 
Q 36.96875 -1.421875 32.421875 -1.421875 
Q 20.0625 -1.421875 12.78125 6.34375 
Q 5.515625 14.109375 5.515625 27.296875 
Q 5.515625 40.671875 12.859375 48.328125 
Q 20.21875 56 33.015625 56 
Q 37.15625 56 41.109375 55.140625 
Q 45.0625 54.296875 48.78125 52.59375 
z
M 36.109375 0 
Q 38.78125 -3.03125 40.09375 -5.59375 
Q 41.421875 -8.15625 41.421875 -10.5 
Q 41.421875 -14.84375 38.484375 -17.0625 
Q 35.5625 -19.28125 29.796875 -19.28125 
Q 27.5625 -19.28125 25.4375 -18.984375 
Q 23.3125 -18.703125 21.203125 -18.109375 
L 21.203125 -11.71875 
Q 22.875 -12.546875 24.671875 -12.90625 
Q 26.484375 -13.28125 28.78125 -13.28125 
Q 31.65625 -13.28125 33.125 -12.109375 
Q 34.59375 -10.9375 34.59375 -8.6875 
Q 34.59375 -7.234375 33.53125 -5.109375 
Q 32.484375 -2.984375 30.296875 0 
z
" id="DejaVuSans-231"/>
      <path d="M 34.28125 27.484375 
Q 23.390625 27.484375 19.1875 25 
Q 14.984375 22.515625 14.984375 16.5 
Q 14.984375 11.71875 18.140625 8.90625 
Q 21.296875 6.109375 26.703125 6.109375 
Q 34.1875 6.109375 38.703125 11.40625 
Q 43.21875 16.703125 43.21875 25.484375 
L 43.21875 27.484375 
z
M 52.203125 31.203125 
L 52.203125 0 
L 43.21875 0 
L 43.21875 8.296875 
Q 40.140625 3.328125 35.546875 0.953125 
Q 30.953125 -1.421875 24.3125 -1.421875 
Q 15.921875 -1.421875 10.953125 3.296875 
Q 6 8.015625 6 15.921875 
Q 6 25.140625 12.171875 29.828125 
Q 18.359375 34.515625 30.609375 34.515625 
L 43.21875 34.515625 
L 43.21875 35.40625 
Q 43.21875 41.609375 39.140625 45 
Q 35.0625 48.390625 27.6875 48.390625 
Q 23 48.390625 18.546875 47.265625 
Q 14.109375 46.140625 10.015625 43.890625 
L 10.015625 52.203125 
Q 14.9375 54.109375 19.578125 55.046875 
Q 24.21875 56 28.609375 56 
Q 40.484375 56 46.34375 49.84375 
Q 52.203125 43.703125 52.203125 31.203125 
z
M 28.8125 66.890625 
L 26.015625 69.578125 
Q 24.953125 70.5625 24.140625 71.015625 
Q 23.34375 71.484375 22.703125 71.484375 
Q 20.84375 71.484375 19.96875 69.703125 
Q 19.09375 67.921875 18.984375 63.921875 
L 12.890625 63.921875 
Q 12.984375 70.515625 15.46875 74.09375 
Q 17.96875 77.6875 22.40625 77.6875 
Q 24.265625 77.6875 25.828125 77 
Q 27.390625 76.3125 29.203125 74.703125 
L 31.984375 72.015625 
Q 33.046875 71.046875 33.859375 70.578125 
Q 34.671875 70.125 35.296875 70.125 
Q 37.15625 70.125 38.03125 71.90625 
Q 38.90625 73.6875 39.015625 77.6875 
L 45.109375 77.6875 
Q 45.015625 71.09375 42.515625 67.5 
Q 40.03125 63.921875 35.59375 63.921875 
Q 33.734375 63.921875 32.171875 64.59375 
Q 30.609375 65.28125 28.8125 66.890625 
z
" id="DejaVuSans-227"/>
      <path d="M 31 75.875 
Q 24.46875 64.65625 21.28125 53.65625 
Q 18.109375 42.671875 18.109375 31.390625 
Q 18.109375 20.125 21.3125 9.0625 
Q 24.515625 -2 31 -13.1875 
L 23.1875 -13.1875 
Q 15.875 -1.703125 12.234375 9.375 
Q 8.59375 20.453125 8.59375 31.390625 
Q 8.59375 42.28125 12.203125 53.3125 
Q 15.828125 64.359375 23.1875 75.875 
z
" id="DejaVuSans-40"/>
      <path d="M 8.015625 75.875 
L 15.828125 75.875 
Q 23.140625 64.359375 26.78125 53.3125 
Q 30.421875 42.28125 30.421875 31.390625 
Q 30.421875 20.453125 26.78125 9.375 
Q 23.140625 -1.703125 15.828125 -13.1875 
L 8.015625 -13.1875 
Q 14.5 -2 17.703125 9.0625 
Q 20.90625 20.125 20.90625 31.390625 
Q 20.90625 42.671875 17.703125 53.65625 
Q 14.5 64.65625 8.015625 75.875 
z
" id="DejaVuSans-41"/>
     </defs>
     <g transform="translate(18.895312 361.174219)rotate(-90)scale(0.1 -0.1)">
      <use xlink:href="#DejaVuSans-84"/>
      <use x="60.818359" xlink:href="#DejaVuSans-101"/>
      <use x="122.341797" xlink:href="#DejaVuSans-109"/>
      <use x="219.753906" xlink:href="#DejaVuSans-112"/>
      <use x="283.230469" xlink:href="#DejaVuSans-111"/>
      <use x="344.412109" xlink:href="#DejaVuSans-32"/>
      <use x="376.199219" xlink:href="#DejaVuSans-109"/>
      <use x="473.611328" xlink:href="#DejaVuSans-233"/>
      <use x="535.134766" xlink:href="#DejaVuSans-100"/>
      <use x="598.611328" xlink:href="#DejaVuSans-105"/>
      <use x="626.394531" xlink:href="#DejaVuSans-111"/>
      <use x="687.576172" xlink:href="#DejaVuSans-32"/>
      <use x="719.363281" xlink:href="#DejaVuSans-100"/>
      <use x="782.839844" xlink:href="#DejaVuSans-101"/>
      <use x="844.363281" xlink:href="#DejaVuSans-32"/>
      <use x="876.150391" xlink:href="#DejaVuSans-101"/>
      <use x="937.658203" xlink:href="#DejaVuSans-120"/>
      <use x="996.791016" xlink:href="#DejaVuSans-101"/>
      <use x="1058.314453" xlink:href="#DejaVuSans-99"/>
      <use x="1113.294922" xlink:href="#DejaVuSans-117"/>
      <use x="1176.673828" xlink:href="#DejaVuSans-231"/>
      <use x="1231.654297" xlink:href="#DejaVuSans-227"/>
      <use x="1292.933594" xlink:href="#DejaVuSans-111"/>
      <use x="1354.115234" xlink:href="#DejaVuSans-32"/>
      <use x="1385.902344" xlink:href="#DejaVuSans-40"/>
      <use x="1424.916016" xlink:href="#DejaVuSans-109"/>
      <use x="1522.328125" xlink:href="#DejaVuSans-115"/>
      <use x="1574.427734" xlink:href="#DejaVuSans-41"/>
     </g>
    </g>
   </g>
   <g id="patch_87">
    <path d="M 57.425 534.2 
L 57.425 26.8 
" style="fill:none;stroke:#000000;stroke-linecap:square;stroke-linejoin:miter;stroke-width:0.8;"/>
   </g>
   <g id="patch_88">
    <path d="M 1429.2 534.2 
L 1429.2 26.8 
" style="fill:none;stroke:#000000;stroke-linecap:square;stroke-linejoin:miter;stroke-width:0.8;"/>
   </g>
   <g id="patch_89">
    <path d="M 57.425 534.2 
L 1429.2 534.2 
" style="fill:none;stroke:#000000;stroke-linecap:square;stroke-linejoin:miter;stroke-width:0.8;"/>
   </g>
   <g id="patch_90">
    <path d="M 57.425 26.8 
L 1429.2 26.8 
" style="fill:none;stroke:#000000;stroke-linecap:square;stroke-linejoin:miter;stroke-width:0.8;"/>
   </g>
   <g id="text_22">
    <!-- Execução dos algoritmos de 10 a 7500 elementos -->
    <defs>
     <path d="M 45.40625 27.984375 
Q 45.40625 37.75 41.375 43.109375 
Q 37.359375 48.484375 30.078125 48.484375 
Q 22.859375 48.484375 18.828125 43.109375 
Q 14.796875 37.75 14.796875 27.984375 
Q 14.796875 18.265625 18.828125 12.890625 
Q 22.859375 7.515625 30.078125 7.515625 
Q 37.359375 7.515625 41.375 12.890625 
Q 45.40625 18.265625 45.40625 27.984375 
z
M 54.390625 6.78125 
Q 54.390625 -7.171875 48.1875 -13.984375 
Q 42 -20.796875 29.203125 -20.796875 
Q 24.46875 -20.796875 20.265625 -20.09375 
Q 16.0625 -19.390625 12.109375 -17.921875 
L 12.109375 -9.1875 
Q 16.0625 -11.328125 19.921875 -12.34375 
Q 23.78125 -13.375 27.78125 -13.375 
Q 36.625 -13.375 41.015625 -8.765625 
Q 45.40625 -4.15625 45.40625 5.171875 
L 45.40625 9.625 
Q 42.625 4.78125 38.28125 2.390625 
Q 33.9375 0 27.875 0 
Q 17.828125 0 11.671875 7.65625 
Q 5.515625 15.328125 5.515625 27.984375 
Q 5.515625 40.671875 11.671875 48.328125 
Q 17.828125 56 27.875 56 
Q 33.9375 56 38.28125 53.609375 
Q 42.625 51.21875 45.40625 46.390625 
L 45.40625 54.6875 
L 54.390625 54.6875 
z
" id="DejaVuSans-103"/>
     <path d="M 41.109375 46.296875 
Q 39.59375 47.171875 37.8125 47.578125 
Q 36.03125 48 33.890625 48 
Q 26.265625 48 22.1875 43.046875 
Q 18.109375 38.09375 18.109375 28.8125 
L 18.109375 0 
L 9.078125 0 
L 9.078125 54.6875 
L 18.109375 54.6875 
L 18.109375 46.1875 
Q 20.953125 51.171875 25.484375 53.578125 
Q 30.03125 56 36.53125 56 
Q 37.453125 56 38.578125 55.875 
Q 39.703125 55.765625 41.0625 55.515625 
z
" id="DejaVuSans-114"/>
    </defs>
    <g transform="translate(593.005938 20.8)scale(0.12 -0.12)">
     <use xlink:href="#DejaVuSans-69"/>
     <use x="63.183594" xlink:href="#DejaVuSans-120"/>
     <use x="122.316406" xlink:href="#DejaVuSans-101"/>
     <use x="183.839844" xlink:href="#DejaVuSans-99"/>
     <use x="238.820312" xlink:href="#DejaVuSans-117"/>
     <use x="302.199219" xlink:href="#DejaVuSans-231"/>
     <use x="357.179688" xlink:href="#DejaVuSans-227"/>
     <use x="418.458984" xlink:href="#DejaVuSans-111"/>
     <use x="479.640625" xlink:href="#DejaVuSans-32"/>
     <use x="511.427734" xlink:href="#DejaVuSans-100"/>
     <use x="574.904297" xlink:href="#DejaVuSans-111"/>
     <use x="636.085938" xlink:href="#DejaVuSans-115"/>
     <use x="688.185547" xlink:href="#DejaVuSans-32"/>
     <use x="719.972656" xlink:href="#DejaVuSans-97"/>
     <use x="781.251953" xlink:href="#DejaVuSans-108"/>
     <use x="809.035156" xlink:href="#DejaVuSans-103"/>
     <use x="872.511719" xlink:href="#DejaVuSans-111"/>
     <use x="933.693359" xlink:href="#DejaVuSans-114"/>
     <use x="974.806641" xlink:href="#DejaVuSans-105"/>
     <use x="1002.589844" xlink:href="#DejaVuSans-116"/>
     <use x="1041.798828" xlink:href="#DejaVuSans-109"/>
     <use x="1139.210938" xlink:href="#DejaVuSans-111"/>
     <use x="1200.392578" xlink:href="#DejaVuSans-115"/>
     <use x="1252.492188" xlink:href="#DejaVuSans-32"/>
     <use x="1284.279297" xlink:href="#DejaVuSans-100"/>
     <use x="1347.755859" xlink:href="#DejaVuSans-101"/>
     <use x="1409.279297" xlink:href="#DejaVuSans-32"/>
     <use x="1441.066406" xlink:href="#DejaVuSans-49"/>
     <use x="1504.689453" xlink:href="#DejaVuSans-48"/>
     <use x="1568.3125" xlink:href="#DejaVuSans-32"/>
     <use x="1600.099609" xlink:href="#DejaVuSans-97"/>
     <use x="1661.378906" xlink:href="#DejaVuSans-32"/>
     <use x="1693.166016" xlink:href="#DejaVuSans-55"/>
     <use x="1756.789062" xlink:href="#DejaVuSans-53"/>
     <use x="1820.412109" xlink:href="#DejaVuSans-48"/>
     <use x="1884.035156" xlink:href="#DejaVuSans-48"/>
     <use x="1947.658203" xlink:href="#DejaVuSans-32"/>
     <use x="1979.445312" xlink:href="#DejaVuSans-101"/>
     <use x="2040.96875" xlink:href="#DejaVuSans-108"/>
     <use x="2068.751953" xlink:href="#DejaVuSans-101"/>
     <use x="2130.275391" xlink:href="#DejaVuSans-109"/>
     <use x="2227.6875" xlink:href="#DejaVuSans-101"/>
     <use x="2289.210938" xlink:href="#DejaVuSans-110"/>
     <use x="2352.589844" xlink:href="#DejaVuSans-116"/>
     <use x="2391.798828" xlink:href="#DejaVuSans-111"/>
     <use x="2452.980469" xlink:href="#DejaVuSans-115"/>
    </g>
   </g>
   <g id="legend_1">
    <g id="patch_91">
     <path d="M 1320.4375 137.546875 
L 1422.2 137.546875 
Q 1424.2 137.546875 1424.2 135.546875 
L 1424.2 33.8 
Q 1424.2 31.8 1422.2 31.8 
L 1320.4375 31.8 
Q 1318.4375 31.8 1318.4375 33.8 
L 1318.4375 135.546875 
Q 1318.4375 137.546875 1320.4375 137.546875 
z
" style="fill:#ffffff;opacity:0.8;stroke:#cccccc;stroke-linejoin:miter;"/>
    </g>
    <g id="patch_92">
     <path d="M 1322.4375 43.398438 
L 1342.4375 43.398438 
L 1342.4375 36.398438 
L 1322.4375 36.398438 
z
" style="fill:#1f77b4;opacity:0.9;"/>
    </g>
    <g id="text_23">
     <!-- Selection Sort -->
     <defs>
      <path d="M 53.515625 70.515625 
L 53.515625 60.890625 
Q 47.90625 63.578125 42.921875 64.890625 
Q 37.9375 66.21875 33.296875 66.21875 
Q 25.25 66.21875 20.875 63.09375 
Q 16.5 59.96875 16.5 54.203125 
Q 16.5 49.359375 19.40625 46.890625 
Q 22.3125 44.4375 30.421875 42.921875 
L 36.375 41.703125 
Q 47.40625 39.59375 52.65625 34.296875 
Q 57.90625 29 57.90625 20.125 
Q 57.90625 9.515625 50.796875 4.046875 
Q 43.703125 -1.421875 29.984375 -1.421875 
Q 24.8125 -1.421875 18.96875 -0.25 
Q 13.140625 0.921875 6.890625 3.21875 
L 6.890625 13.375 
Q 12.890625 10.015625 18.65625 8.296875 
Q 24.421875 6.59375 29.984375 6.59375 
Q 38.421875 6.59375 43.015625 9.90625 
Q 47.609375 13.234375 47.609375 19.390625 
Q 47.609375 24.75 44.3125 27.78125 
Q 41.015625 30.8125 33.5 32.328125 
L 27.484375 33.5 
Q 16.453125 35.6875 11.515625 40.375 
Q 6.59375 45.0625 6.59375 53.421875 
Q 6.59375 63.09375 13.40625 68.65625 
Q 20.21875 74.21875 32.171875 74.21875 
Q 37.3125 74.21875 42.625 73.28125 
Q 47.953125 72.359375 53.515625 70.515625 
z
" id="DejaVuSans-83"/>
     </defs>
     <g transform="translate(1350.4375 43.398438)scale(0.1 -0.1)">
      <use xlink:href="#DejaVuSans-83"/>
      <use x="63.476562" xlink:href="#DejaVuSans-101"/>
      <use x="125" xlink:href="#DejaVuSans-108"/>
      <use x="152.783203" xlink:href="#DejaVuSans-101"/>
      <use x="214.306641" xlink:href="#DejaVuSans-99"/>
      <use x="269.287109" xlink:href="#DejaVuSans-116"/>
      <use x="308.496094" xlink:href="#DejaVuSans-105"/>
      <use x="336.279297" xlink:href="#DejaVuSans-111"/>
      <use x="397.460938" xlink:href="#DejaVuSans-110"/>
      <use x="460.839844" xlink:href="#DejaVuSans-32"/>
      <use x="492.626953" xlink:href="#DejaVuSans-83"/>
      <use x="556.103516" xlink:href="#DejaVuSans-111"/>
      <use x="617.285156" xlink:href="#DejaVuSans-114"/>
      <use x="658.398438" xlink:href="#DejaVuSans-116"/>
     </g>
    </g>
    <g id="patch_93">
     <path d="M 1322.4375 58.076563 
L 1342.4375 58.076563 
L 1342.4375 51.076563 
L 1322.4375 51.076563 
z
" style="fill:#ff7f0e;opacity:0.9;"/>
    </g>
    <g id="text_24">
     <!-- Insertion Sort -->
     <defs>
      <path d="M 9.8125 72.90625 
L 19.671875 72.90625 
L 19.671875 0 
L 9.8125 0 
z
" id="DejaVuSans-73"/>
     </defs>
     <g transform="translate(1350.4375 58.076563)scale(0.1 -0.1)">
      <use xlink:href="#DejaVuSans-73"/>
      <use x="29.492188" xlink:href="#DejaVuSans-110"/>
      <use x="92.871094" xlink:href="#DejaVuSans-115"/>
      <use x="144.970703" xlink:href="#DejaVuSans-101"/>
      <use x="206.494141" xlink:href="#DejaVuSans-114"/>
      <use x="247.607422" xlink:href="#DejaVuSans-116"/>
      <use x="286.816406" xlink:href="#DejaVuSans-105"/>
      <use x="314.599609" xlink:href="#DejaVuSans-111"/>
      <use x="375.78125" xlink:href="#DejaVuSans-110"/>
      <use x="439.160156" xlink:href="#DejaVuSans-32"/>
      <use x="470.947266" xlink:href="#DejaVuSans-83"/>
      <use x="534.423828" xlink:href="#DejaVuSans-111"/>
      <use x="595.605469" xlink:href="#DejaVuSans-114"/>
      <use x="636.71875" xlink:href="#DejaVuSans-116"/>
     </g>
    </g>
    <g id="patch_94">
     <path d="M 1322.4375 72.754687 
L 1342.4375 72.754687 
L 1342.4375 65.754687 
L 1322.4375 65.754687 
z
" style="fill:#2ca02c;opacity:0.9;"/>
    </g>
    <g id="text_25">
     <!-- Merge Sort -->
     <defs>
      <path d="M 9.8125 72.90625 
L 24.515625 72.90625 
L 43.109375 23.296875 
L 61.8125 72.90625 
L 76.515625 72.90625 
L 76.515625 0 
L 66.890625 0 
L 66.890625 64.015625 
L 48.09375 14.015625 
L 38.1875 14.015625 
L 19.390625 64.015625 
L 19.390625 0 
L 9.8125 0 
z
" id="DejaVuSans-77"/>
     </defs>
     <g transform="translate(1350.4375 72.754687)scale(0.1 -0.1)">
      <use xlink:href="#DejaVuSans-77"/>
      <use x="86.279297" xlink:href="#DejaVuSans-101"/>
      <use x="147.802734" xlink:href="#DejaVuSans-114"/>
      <use x="188.900391" xlink:href="#DejaVuSans-103"/>
      <use x="252.376953" xlink:href="#DejaVuSans-101"/>
      <use x="313.900391" xlink:href="#DejaVuSans-32"/>
      <use x="345.6875" xlink:href="#DejaVuSans-83"/>
      <use x="409.164062" xlink:href="#DejaVuSans-111"/>
      <use x="470.345703" xlink:href="#DejaVuSans-114"/>
      <use x="511.458984" xlink:href="#DejaVuSans-116"/>
     </g>
    </g>
    <g id="patch_95">
     <path d="M 1322.4375 87.432813 
L 1342.4375 87.432813 
L 1342.4375 80.432813 
L 1322.4375 80.432813 
z
" style="fill:#d62728;opacity:0.9;"/>
    </g>
    <g id="text_26">
     <!-- Heap Sort -->
     <defs>
      <path d="M 9.8125 72.90625 
L 19.671875 72.90625 
L 19.671875 43.015625 
L 55.515625 43.015625 
L 55.515625 72.90625 
L 65.375 72.90625 
L 65.375 0 
L 55.515625 0 
L 55.515625 34.71875 
L 19.671875 34.71875 
L 19.671875 0 
L 9.8125 0 
z
" id="DejaVuSans-72"/>
     </defs>
     <g transform="translate(1350.4375 87.432813)scale(0.1 -0.1)">
      <use xlink:href="#DejaVuSans-72"/>
      <use x="75.195312" xlink:href="#DejaVuSans-101"/>
      <use x="136.71875" xlink:href="#DejaVuSans-97"/>
      <use x="197.998047" xlink:href="#DejaVuSans-112"/>
      <use x="261.474609" xlink:href="#DejaVuSans-32"/>
      <use x="293.261719" xlink:href="#DejaVuSans-83"/>
      <use x="356.738281" xlink:href="#DejaVuSans-111"/>
      <use x="417.919922" xlink:href="#DejaVuSans-114"/>
      <use x="459.033203" xlink:href="#DejaVuSans-116"/>
     </g>
    </g>
    <g id="patch_96">
     <path d="M 1322.4375 102.110937 
L 1342.4375 102.110937 
L 1342.4375 95.110937 
L 1322.4375 95.110937 
z
" style="fill:#9467bd;opacity:0.9;"/>
    </g>
    <g id="text_27">
     <!-- Quick Sort -->
     <defs>
      <path d="M 9.078125 75.984375 
L 18.109375 75.984375 
L 18.109375 31.109375 
L 44.921875 54.6875 
L 56.390625 54.6875 
L 27.390625 29.109375 
L 57.625 0 
L 45.90625 0 
L 18.109375 26.703125 
L 18.109375 0 
L 9.078125 0 
z
" id="DejaVuSans-107"/>
     </defs>
     <g transform="translate(1350.4375 102.110937)scale(0.1 -0.1)">
      <use xlink:href="#DejaVuSans-81"/>
      <use x="78.710938" xlink:href="#DejaVuSans-117"/>
      <use x="142.089844" xlink:href="#DejaVuSans-105"/>
      <use x="169.873047" xlink:href="#DejaVuSans-99"/>
      <use x="224.853516" xlink:href="#DejaVuSans-107"/>
      <use x="282.763672" xlink:href="#DejaVuSans-32"/>
      <use x="314.550781" xlink:href="#DejaVuSans-83"/>
      <use x="378.027344" xlink:href="#DejaVuSans-111"/>
      <use x="439.208984" xlink:href="#DejaVuSans-114"/>
      <use x="480.322266" xlink:href="#DejaVuSans-116"/>
     </g>
    </g>
    <g id="patch_97">
     <path d="M 1322.4375 116.789062 
L 1342.4375 116.789062 
L 1342.4375 109.789062 
L 1322.4375 109.789062 
z
" style="fill:#8c564b;opacity:0.9;"/>
    </g>
    <g id="text_28">
     <!-- Intro Sort -->
     <g transform="translate(1350.4375 116.789062)scale(0.1 -0.1)">
      <use xlink:href="#DejaVuSans-73"/>
      <use x="29.492188" xlink:href="#DejaVuSans-110"/>
      <use x="92.871094" xlink:href="#DejaVuSans-116"/>
      <use x="132.080078" xlink:href="#DejaVuSans-114"/>
      <use x="173.162109" xlink:href="#DejaVuSans-111"/>
      <use x="234.34375" xlink:href="#DejaVuSans-32"/>
      <use x="266.130859" xlink:href="#DejaVuSans-83"/>
      <use x="329.607422" xlink:href="#DejaVuSans-111"/>
      <use x="390.789062" xlink:href="#DejaVuSans-114"/>
      <use x="431.902344" xlink:href="#DejaVuSans-116"/>
     </g>
    </g>
    <g id="patch_98">
     <path d="M 1322.4375 131.467188 
L 1342.4375 131.467188 
L 1342.4375 124.467188 
L 1322.4375 124.467188 
z
" style="fill:#e377c2;opacity:0.9;"/>
    </g>
    <g id="text_29">
     <!-- Tim Sort -->
     <g transform="translate(1350.4375 131.467188)scale(0.1 -0.1)">
      <use xlink:href="#DejaVuSans-84"/>
      <use x="61.037109" xlink:href="#DejaVuSans-105"/>
      <use x="88.820312" xlink:href="#DejaVuSans-109"/>
      <use x="186.232422" xlink:href="#DejaVuSans-32"/>
      <use x="218.019531" xlink:href="#DejaVuSans-83"/>
      <use x="281.496094" xlink:href="#DejaVuSans-111"/>
      <use x="342.677734" xlink:href="#DejaVuSans-114"/>
      <use x="383.791016" xlink:href="#DejaVuSans-116"/>
     </g>
    </g>
   </g>
  </g>
 </g>
 <defs>
  <clipPath id="p369cd0a6d4">
   <rect height="507.4" width="1371.775" x="57.425" y="26.8"/>
  </clipPath>
 </defs>
</svg>
