<?xml version="1.0" encoding="utf-8" standalone="no"?>
<!DOCTYPE svg PUBLIC "-//W3C//DTD SVG 1.1//EN"
  "http://www.w3.org/Graphics/SVG/1.1/DTD/svg11.dtd">
<!-- Created with matplotlib (https://matplotlib.org/) -->
<svg height="864pt" version="1.1" viewBox="0 0 1440 864" width="1440pt" xmlns="http://www.w3.org/2000/svg" xmlns:xlink="http://www.w3.org/1999/xlink">
 <defs>
  <style type="text/css">
*{stroke-linecap:butt;stroke-linejoin:round;}
  </style>
 </defs>
 <g id="figure_1">
  <g id="patch_1">
   <path d="M 0 864 
L 1440 864 
L 1440 0 
L 0 0 
z
" style="fill:#ffffff;"/>
  </g>
  <g id="axes_1">
   <g id="patch_2">
    <path d="M 69.925 822.2 
L 1429.2 822.2 
L 1429.2 26.8 
L 69.925 26.8 
z
" style="fill:#ffffff;"/>
   </g>
   <g id="patch_3">
    <path clip-path="url(#pf6890dd8b0)" d="M 131.710227 822.2 
L 141.272859 822.2 
L 141.272859 813.301994 
L 131.710227 813.301994 
z
" style="fill:#1f77b4;opacity:0.9;"/>
   </g>
   <g id="patch_4">
    <path clip-path="url(#pf6890dd8b0)" d="M 237.961693 822.2 
L 247.524325 822.2 
L 247.524325 760.227106 
L 237.961693 760.227106 
z
" style="fill:#1f77b4;opacity:0.9;"/>
   </g>
   <g id="patch_5">
    <path clip-path="url(#pf6890dd8b0)" d="M 344.213159 822.2 
L 353.77579 822.2 
L 353.77579 542.399161 
L 344.213159 542.399161 
z
" style="fill:#1f77b4;opacity:0.9;"/>
   </g>
   <g id="patch_6">
    <path clip-path="url(#pf6890dd8b0)" d="M 450.464624 822.2 
L 460.027256 822.2 
L 460.027256 129.059765 
L 450.464624 129.059765 
z
" style="fill:#1f77b4;opacity:0.9;"/>
   </g>
   <g id="patch_7">
    <path clip-path="url(#pf6890dd8b0)" d="M 556.71609 822.2 
L 566.278722 822.2 
L 566.278722 64.67619 
L 556.71609 64.67619 
z
" style="fill:#1f77b4;opacity:0.9;"/>
   </g>
   <g id="patch_8">
    <path clip-path="url(#pf6890dd8b0)" d="M 662.967555 822.2 
L 672.530187 822.2 
L 672.530187 64.67619 
L 662.967555 64.67619 
z
" style="fill:#1f77b4;opacity:0.9;"/>
   </g>
   <g id="patch_9">
    <path clip-path="url(#pf6890dd8b0)" d="M 769.219021 822.2 
L 778.781653 822.2 
L 778.781653 64.67619 
L 769.219021 64.67619 
z
" style="fill:#1f77b4;opacity:0.9;"/>
   </g>
   <g id="patch_10">
    <path clip-path="url(#pf6890dd8b0)" d="M 875.470487 822.2 
L 885.033119 822.2 
L 885.033119 64.67619 
L 875.470487 64.67619 
z
" style="fill:#1f77b4;opacity:0.9;"/>
   </g>
   <g id="patch_11">
    <path clip-path="url(#pf6890dd8b0)" d="M 981.721952 822.2 
L 991.284584 822.2 
L 991.284584 64.67619 
L 981.721952 64.67619 
z
" style="fill:#1f77b4;opacity:0.9;"/>
   </g>
   <g id="patch_12">
    <path clip-path="url(#pf6890dd8b0)" d="M 1087.973418 822.2 
L 1097.53605 822.2 
L 1097.53605 64.67619 
L 1087.973418 64.67619 
z
" style="fill:#1f77b4;opacity:0.9;"/>
   </g>
   <g id="patch_13">
    <path clip-path="url(#pf6890dd8b0)" d="M 1194.224884 822.2 
L 1203.787516 822.2 
L 1203.787516 64.67619 
L 1194.224884 64.67619 
z
" style="fill:#1f77b4;opacity:0.9;"/>
   </g>
   <g id="patch_14">
    <path clip-path="url(#pf6890dd8b0)" d="M 1300.476349 822.2 
L 1310.038981 822.2 
L 1310.038981 64.67619 
L 1300.476349 64.67619 
z
" style="fill:#1f77b4;opacity:0.9;"/>
   </g>
   <g id="patch_15">
    <path clip-path="url(#pf6890dd8b0)" d="M 141.272859 822.2 
L 150.835491 822.2 
L 150.835491 817.066011 
L 141.272859 817.066011 
z
" style="fill:#ff7f0e;opacity:0.9;"/>
   </g>
   <g id="patch_16">
    <path clip-path="url(#pf6890dd8b0)" d="M 247.524325 822.2 
L 257.086957 822.2 
L 257.086957 788.127249 
L 247.524325 788.127249 
z
" style="fill:#ff7f0e;opacity:0.9;"/>
   </g>
   <g id="patch_17">
    <path clip-path="url(#pf6890dd8b0)" d="M 353.77579 822.2 
L 363.338422 822.2 
L 363.338422 661.016657 
L 353.77579 661.016657 
z
" style="fill:#ff7f0e;opacity:0.9;"/>
   </g>
   <g id="patch_18">
    <path clip-path="url(#pf6890dd8b0)" d="M 460.027256 822.2 
L 469.589888 822.2 
L 469.589888 379.366222 
L 460.027256 379.366222 
z
" style="fill:#ff7f0e;opacity:0.9;"/>
   </g>
   <g id="patch_19">
    <path clip-path="url(#pf6890dd8b0)" d="M 566.278722 822.2 
L 575.841354 822.2 
L 575.841354 64.67619 
L 566.278722 64.67619 
z
" style="fill:#ff7f0e;opacity:0.9;"/>
   </g>
   <g id="patch_20">
    <path clip-path="url(#pf6890dd8b0)" d="M 672.530187 822.2 
L 682.092819 822.2 
L 682.092819 64.67619 
L 672.530187 64.67619 
z
" style="fill:#ff7f0e;opacity:0.9;"/>
   </g>
   <g id="patch_21">
    <path clip-path="url(#pf6890dd8b0)" d="M 778.781653 822.2 
L 788.344285 822.2 
L 788.344285 64.67619 
L 778.781653 64.67619 
z
" style="fill:#ff7f0e;opacity:0.9;"/>
   </g>
   <g id="patch_22">
    <path clip-path="url(#pf6890dd8b0)" d="M 885.033119 822.2 
L 894.595751 822.2 
L 894.595751 64.67619 
L 885.033119 64.67619 
z
" style="fill:#ff7f0e;opacity:0.9;"/>
   </g>
   <g id="patch_23">
    <path clip-path="url(#pf6890dd8b0)" d="M 991.284584 822.2 
L 1000.847216 822.2 
L 1000.847216 64.67619 
L 991.284584 64.67619 
z
" style="fill:#ff7f0e;opacity:0.9;"/>
   </g>
   <g id="patch_24">
    <path clip-path="url(#pf6890dd8b0)" d="M 1097.53605 822.2 
L 1107.098682 822.2 
L 1107.098682 64.67619 
L 1097.53605 64.67619 
z
" style="fill:#ff7f0e;opacity:0.9;"/>
   </g>
   <g id="patch_25">
    <path clip-path="url(#pf6890dd8b0)" d="M 1203.787516 822.2 
L 1213.350148 822.2 
L 1213.350148 64.67619 
L 1203.787516 64.67619 
z
" style="fill:#ff7f0e;opacity:0.9;"/>
   </g>
   <g id="patch_26">
    <path clip-path="url(#pf6890dd8b0)" d="M 1310.038981 822.2 
L 1319.601613 822.2 
L 1319.601613 64.67619 
L 1310.038981 64.67619 
z
" style="fill:#ff7f0e;opacity:0.9;"/>
   </g>
   <g id="patch_27">
    <path clip-path="url(#pf6890dd8b0)" d="M 150.835491 822.2 
L 160.398123 822.2 
L 160.398123 822.13755 
L 150.835491 822.13755 
z
" style="fill:#2ca02c;opacity:0.9;"/>
   </g>
   <g id="patch_28">
    <path clip-path="url(#pf6890dd8b0)" d="M 257.086957 822.2 
L 266.649589 822.2 
L 266.649589 822.034944 
L 257.086957 822.034944 
z
" style="fill:#2ca02c;opacity:0.9;"/>
   </g>
   <g id="patch_29">
    <path clip-path="url(#pf6890dd8b0)" d="M 363.338422 822.2 
L 372.901054 822.2 
L 372.901054 821.846013 
L 363.338422 821.846013 
z
" style="fill:#2ca02c;opacity:0.9;"/>
   </g>
   <g id="patch_30">
    <path clip-path="url(#pf6890dd8b0)" d="M 469.589888 822.2 
L 479.15252 822.2 
L 479.15252 821.63946 
L 469.589888 821.63946 
z
" style="fill:#2ca02c;opacity:0.9;"/>
   </g>
   <g id="patch_31">
    <path clip-path="url(#pf6890dd8b0)" d="M 575.841354 822.2 
L 585.403986 822.2 
L 585.403986 821.428954 
L 575.841354 821.428954 
z
" style="fill:#2ca02c;opacity:0.9;"/>
   </g>
   <g id="patch_32">
    <path clip-path="url(#pf6890dd8b0)" d="M 682.092819 822.2 
L 691.655451 822.2 
L 691.655451 820.100355 
L 682.092819 820.100355 
z
" style="fill:#2ca02c;opacity:0.9;"/>
   </g>
   <g id="patch_33">
    <path clip-path="url(#pf6890dd8b0)" d="M 788.344285 822.2 
L 797.906917 822.2 
L 797.906917 817.640625 
L 788.344285 817.640625 
z
" style="fill:#2ca02c;opacity:0.9;"/>
   </g>
   <g id="patch_34">
    <path clip-path="url(#pf6890dd8b0)" d="M 894.595751 822.2 
L 904.158383 822.2 
L 904.158383 814.97618 
L 894.595751 814.97618 
z
" style="fill:#2ca02c;opacity:0.9;"/>
   </g>
   <g id="patch_35">
    <path clip-path="url(#pf6890dd8b0)" d="M 1000.847216 822.2 
L 1010.409848 822.2 
L 1010.409848 812.430711 
L 1000.847216 812.430711 
z
" style="fill:#2ca02c;opacity:0.9;"/>
   </g>
   <g id="patch_36">
    <path clip-path="url(#pf6890dd8b0)" d="M 1107.098682 822.2 
L 1116.661314 822.2 
L 1116.661314 795.021222 
L 1107.098682 795.021222 
z
" style="fill:#2ca02c;opacity:0.9;"/>
   </g>
   <g id="patch_37">
    <path clip-path="url(#pf6890dd8b0)" d="M 1213.350148 822.2 
L 1222.912779 822.2 
L 1222.912779 764.24859 
L 1213.350148 764.24859 
z
" style="fill:#2ca02c;opacity:0.9;"/>
   </g>
   <g id="patch_38">
    <path clip-path="url(#pf6890dd8b0)" d="M 1319.601613 822.2 
L 1329.164245 822.2 
L 1329.164245 732.26956 
L 1319.601613 732.26956 
z
" style="fill:#2ca02c;opacity:0.9;"/>
   </g>
   <g id="patch_39">
    <path clip-path="url(#pf6890dd8b0)" d="M 160.398123 822.2 
L 169.960755 822.2 
L 169.960755 822.115344 
L 160.398123 822.115344 
z
" style="fill:#d62728;opacity:0.9;"/>
   </g>
   <g id="patch_40">
    <path clip-path="url(#pf6890dd8b0)" d="M 266.649589 822.2 
L 276.212221 822.2 
L 276.212221 821.962205 
L 266.649589 821.962205 
z
" style="fill:#d62728;opacity:0.9;"/>
   </g>
   <g id="patch_41">
    <path clip-path="url(#pf6890dd8b0)" d="M 372.901054 822.2 
L 382.463686 822.2 
L 382.463686 821.66649 
L 372.901054 821.66649 
z
" style="fill:#d62728;opacity:0.9;"/>
   </g>
   <g id="patch_42">
    <path clip-path="url(#pf6890dd8b0)" d="M 479.15252 822.2 
L 488.715152 822.2 
L 488.715152 821.37306 
L 479.15252 821.37306 
z
" style="fill:#d62728;opacity:0.9;"/>
   </g>
   <g id="patch_43">
    <path clip-path="url(#pf6890dd8b0)" d="M 585.403986 822.2 
L 594.966617 822.2 
L 594.966617 821.043583 
L 585.403986 821.043583 
z
" style="fill:#d62728;opacity:0.9;"/>
   </g>
   <g id="patch_44">
    <path clip-path="url(#pf6890dd8b0)" d="M 691.655451 822.2 
L 701.218083 822.2 
L 701.218083 818.796879 
L 691.655451 818.796879 
z
" style="fill:#d62728;opacity:0.9;"/>
   </g>
   <g id="patch_45">
    <path clip-path="url(#pf6890dd8b0)" d="M 797.906917 822.2 
L 807.469549 822.2 
L 807.469549 814.987134 
L 797.906917 814.987134 
z
" style="fill:#d62728;opacity:0.9;"/>
   </g>
   <g id="patch_46">
    <path clip-path="url(#pf6890dd8b0)" d="M 904.158383 822.2 
L 913.721014 822.2 
L 913.721014 810.746872 
L 904.158383 810.746872 
z
" style="fill:#d62728;opacity:0.9;"/>
   </g>
   <g id="patch_47">
    <path clip-path="url(#pf6890dd8b0)" d="M 1010.409848 822.2 
L 1019.97248 822.2 
L 1019.97248 806.4008 
L 1010.409848 806.4008 
z
" style="fill:#d62728;opacity:0.9;"/>
   </g>
   <g id="patch_48">
    <path clip-path="url(#pf6890dd8b0)" d="M 1116.661314 822.2 
L 1126.223946 822.2 
L 1126.223946 777.704882 
L 1116.661314 777.704882 
z
" style="fill:#d62728;opacity:0.9;"/>
   </g>
   <g id="patch_49">
    <path clip-path="url(#pf6890dd8b0)" d="M 1222.912779 822.2 
L 1232.475411 822.2 
L 1232.475411 725.606992 
L 1222.912779 725.606992 
z
" style="fill:#d62728;opacity:0.9;"/>
   </g>
   <g id="patch_50">
    <path clip-path="url(#pf6890dd8b0)" d="M 1329.164245 822.2 
L 1338.726877 822.2 
L 1338.726877 670.964391 
L 1329.164245 670.964391 
z
" style="fill:#d62728;opacity:0.9;"/>
   </g>
   <g id="patch_51">
    <path clip-path="url(#pf6890dd8b0)" d="M 169.960755 822.2 
L 179.523387 822.2 
L 179.523387 822.156615 
L 169.960755 822.156615 
z
" style="fill:#9467bd;opacity:0.9;"/>
   </g>
   <g id="patch_52">
    <path clip-path="url(#pf6890dd8b0)" d="M 276.212221 822.2 
L 285.774852 822.2 
L 285.774852 822.0875 
L 276.212221 822.0875 
z
" style="fill:#9467bd;opacity:0.9;"/>
   </g>
   <g id="patch_53">
    <path clip-path="url(#pf6890dd8b0)" d="M 382.463686 822.2 
L 392.026318 822.2 
L 392.026318 821.931088 
L 382.463686 821.931088 
z
" style="fill:#9467bd;opacity:0.9;"/>
   </g>
   <g id="patch_54">
    <path clip-path="url(#pf6890dd8b0)" d="M 488.715152 822.2 
L 498.277784 822.2 
L 498.277784 821.764352 
L 488.715152 821.764352 
z
" style="fill:#9467bd;opacity:0.9;"/>
   </g>
   <g id="patch_55">
    <path clip-path="url(#pf6890dd8b0)" d="M 594.966617 822.2 
L 604.529249 822.2 
L 604.529249 821.646557 
L 594.966617 821.646557 
z
" style="fill:#9467bd;opacity:0.9;"/>
   </g>
   <g id="patch_56">
    <path clip-path="url(#pf6890dd8b0)" d="M 701.218083 822.2 
L 710.780715 822.2 
L 710.780715 820.600333 
L 701.218083 820.600333 
z
" style="fill:#9467bd;opacity:0.9;"/>
   </g>
   <g id="patch_57">
    <path clip-path="url(#pf6890dd8b0)" d="M 807.469549 822.2 
L 817.032181 822.2 
L 817.032181 818.737322 
L 807.469549 818.737322 
z
" style="fill:#9467bd;opacity:0.9;"/>
   </g>
   <g id="patch_58">
    <path clip-path="url(#pf6890dd8b0)" d="M 913.721014 822.2 
L 923.283646 822.2 
L 923.283646 816.700688 
L 913.721014 816.700688 
z
" style="fill:#9467bd;opacity:0.9;"/>
   </g>
   <g id="patch_59">
    <path clip-path="url(#pf6890dd8b0)" d="M 1019.97248 822.2 
L 1029.535112 822.2 
L 1029.535112 814.53983 
L 1019.97248 814.53983 
z
" style="fill:#9467bd;opacity:0.9;"/>
   </g>
   <g id="patch_60">
    <path clip-path="url(#pf6890dd8b0)" d="M 1126.223946 822.2 
L 1135.786578 822.2 
L 1135.786578 800.399728 
L 1126.223946 800.399728 
z
" style="fill:#9467bd;opacity:0.9;"/>
   </g>
   <g id="patch_61">
    <path clip-path="url(#pf6890dd8b0)" d="M 1232.475411 822.2 
L 1242.038043 822.2 
L 1242.038043 772.96302 
L 1232.475411 772.96302 
z
" style="fill:#9467bd;opacity:0.9;"/>
   </g>
   <g id="patch_62">
    <path clip-path="url(#pf6890dd8b0)" d="M 1338.726877 822.2 
L 1348.289509 822.2 
L 1348.289509 745.119019 
L 1338.726877 745.119019 
z
" style="fill:#9467bd;opacity:0.9;"/>
   </g>
   <g id="patch_63">
    <path clip-path="url(#pf6890dd8b0)" d="M 179.523387 822.2 
L 189.086019 822.2 
L 189.086019 822.115262 
L 179.523387 822.115262 
z
" style="fill:#8c564b;opacity:0.9;"/>
   </g>
   <g id="patch_64">
    <path clip-path="url(#pf6890dd8b0)" d="M 285.774852 822.2 
L 295.337484 822.2 
L 295.337484 821.961949 
L 285.774852 821.961949 
z
" style="fill:#8c564b;opacity:0.9;"/>
   </g>
   <g id="patch_65">
    <path clip-path="url(#pf6890dd8b0)" d="M 392.026318 822.2 
L 401.58895 822.2 
L 401.58895 821.666593 
L 392.026318 821.666593 
z
" style="fill:#8c564b;opacity:0.9;"/>
   </g>
   <g id="patch_66">
    <path clip-path="url(#pf6890dd8b0)" d="M 498.277784 822.2 
L 507.840416 822.2 
L 507.840416 821.371987 
L 498.277784 821.371987 
z
" style="fill:#8c564b;opacity:0.9;"/>
   </g>
   <g id="patch_67">
    <path clip-path="url(#pf6890dd8b0)" d="M 604.529249 822.2 
L 614.091881 822.2 
L 614.091881 821.044801 
L 604.529249 821.044801 
z
" style="fill:#8c564b;opacity:0.9;"/>
   </g>
   <g id="patch_68">
    <path clip-path="url(#pf6890dd8b0)" d="M 710.780715 822.2 
L 720.343347 822.2 
L 720.343347 818.803114 
L 710.780715 818.803114 
z
" style="fill:#8c564b;opacity:0.9;"/>
   </g>
   <g id="patch_69">
    <path clip-path="url(#pf6890dd8b0)" d="M 817.032181 822.2 
L 826.594813 822.2 
L 826.594813 814.99734 
L 817.032181 814.99734 
z
" style="fill:#8c564b;opacity:0.9;"/>
   </g>
   <g id="patch_70">
    <path clip-path="url(#pf6890dd8b0)" d="M 923.283646 822.2 
L 932.846278 822.2 
L 932.846278 810.749695 
L 923.283646 810.749695 
z
" style="fill:#8c564b;opacity:0.9;"/>
   </g>
   <g id="patch_71">
    <path clip-path="url(#pf6890dd8b0)" d="M 1029.535112 822.2 
L 1039.097744 822.2 
L 1039.097744 806.405796 
L 1029.535112 806.405796 
z
" style="fill:#8c564b;opacity:0.9;"/>
   </g>
   <g id="patch_72">
    <path clip-path="url(#pf6890dd8b0)" d="M 1135.786578 822.2 
L 1145.34921 822.2 
L 1145.34921 777.838878 
L 1135.786578 777.838878 
z
" style="fill:#8c564b;opacity:0.9;"/>
   </g>
   <g id="patch_73">
    <path clip-path="url(#pf6890dd8b0)" d="M 1242.038043 822.2 
L 1251.600675 822.2 
L 1251.600675 725.817984 
L 1242.038043 725.817984 
z
" style="fill:#8c564b;opacity:0.9;"/>
   </g>
   <g id="patch_74">
    <path clip-path="url(#pf6890dd8b0)" d="M 1348.289509 822.2 
L 1357.852141 822.2 
L 1357.852141 671.149453 
L 1348.289509 671.149453 
z
" style="fill:#8c564b;opacity:0.9;"/>
   </g>
   <g id="patch_75">
    <path clip-path="url(#pf6890dd8b0)" d="M 189.086019 822.2 
L 198.648651 822.2 
L 198.648651 822.153348 
L 189.086019 822.153348 
z
" style="fill:#e377c2;opacity:0.9;"/>
   </g>
   <g id="patch_76">
    <path clip-path="url(#pf6890dd8b0)" d="M 295.337484 822.2 
L 304.900116 822.2 
L 304.900116 822.077915 
L 295.337484 822.077915 
z
" style="fill:#e377c2;opacity:0.9;"/>
   </g>
   <g id="patch_77">
    <path clip-path="url(#pf6890dd8b0)" d="M 401.58895 822.2 
L 411.151582 822.2 
L 411.151582 821.946793 
L 401.58895 821.946793 
z
" style="fill:#e377c2;opacity:0.9;"/>
   </g>
   <g id="patch_78">
    <path clip-path="url(#pf6890dd8b0)" d="M 507.840416 822.2 
L 517.403048 822.2 
L 517.403048 821.800227 
L 507.840416 821.800227 
z
" style="fill:#e377c2;opacity:0.9;"/>
   </g>
   <g id="patch_79">
    <path clip-path="url(#pf6890dd8b0)" d="M 614.091881 822.2 
L 623.654513 822.2 
L 623.654513 821.651868 
L 614.091881 821.651868 
z
" style="fill:#e377c2;opacity:0.9;"/>
   </g>
   <g id="patch_80">
    <path clip-path="url(#pf6890dd8b0)" d="M 720.343347 822.2 
L 729.905979 822.2 
L 729.905979 820.756467 
L 720.343347 820.756467 
z
" style="fill:#e377c2;opacity:0.9;"/>
   </g>
   <g id="patch_81">
    <path clip-path="url(#pf6890dd8b0)" d="M 826.594813 822.2 
L 836.157445 822.2 
L 836.157445 819.074453 
L 826.594813 819.074453 
z
" style="fill:#e377c2;opacity:0.9;"/>
   </g>
   <g id="patch_82">
    <path clip-path="url(#pf6890dd8b0)" d="M 932.846278 822.2 
L 942.40891 822.2 
L 942.40891 817.292452 
L 932.846278 817.292452 
z
" style="fill:#e377c2;opacity:0.9;"/>
   </g>
   <g id="patch_83">
    <path clip-path="url(#pf6890dd8b0)" d="M 1039.097744 822.2 
L 1048.660376 822.2 
L 1048.660376 815.607668 
L 1039.097744 815.607668 
z
" style="fill:#e377c2;opacity:0.9;"/>
   </g>
   <g id="patch_84">
    <path clip-path="url(#pf6890dd8b0)" d="M 1145.34921 822.2 
L 1154.911841 822.2 
L 1154.911841 804.234858 
L 1145.34921 804.234858 
z
" style="fill:#e377c2;opacity:0.9;"/>
   </g>
   <g id="patch_85">
    <path clip-path="url(#pf6890dd8b0)" d="M 1251.600675 822.2 
L 1261.163307 822.2 
L 1261.163307 783.837785 
L 1251.600675 783.837785 
z
" style="fill:#e377c2;opacity:0.9;"/>
   </g>
   <g id="patch_86">
    <path clip-path="url(#pf6890dd8b0)" d="M 1357.852141 822.2 
L 1367.414773 822.2 
L 1367.414773 764.557396 
L 1357.852141 764.557396 
z
" style="fill:#e377c2;opacity:0.9;"/>
   </g>
   <g id="matplotlib.axis_1">
    <g id="xtick_1">
     <g id="line2d_1">
      <defs>
       <path d="M 0 0 
L 0 3.5 
" id="m552c8e1095" style="stroke:#000000;stroke-width:0.8;"/>
      </defs>
      <g>
       <use style="stroke:#000000;stroke-width:0.8;" x="138.212817" xlink:href="#m552c8e1095" y="822.2"/>
      </g>
     </g>
     <g id="text_1">
      <!-- 1.0E+04 -->
      <defs>
       <path d="M 12.40625 8.296875 
L 28.515625 8.296875 
L 28.515625 63.921875 
L 10.984375 60.40625 
L 10.984375 69.390625 
L 28.421875 72.90625 
L 38.28125 72.90625 
L 38.28125 8.296875 
L 54.390625 8.296875 
L 54.390625 0 
L 12.40625 0 
z
" id="DejaVuSans-49"/>
       <path d="M 10.6875 12.40625 
L 21 12.40625 
L 21 0 
L 10.6875 0 
z
" id="DejaVuSans-46"/>
       <path d="M 31.78125 66.40625 
Q 24.171875 66.40625 20.328125 58.90625 
Q 16.5 51.421875 16.5 36.375 
Q 16.5 21.390625 20.328125 13.890625 
Q 24.171875 6.390625 31.78125 6.390625 
Q 39.453125 6.390625 43.28125 13.890625 
Q 47.125 21.390625 47.125 36.375 
Q 47.125 51.421875 43.28125 58.90625 
Q 39.453125 66.40625 31.78125 66.40625 
z
M 31.78125 74.21875 
Q 44.046875 74.21875 50.515625 64.515625 
Q 56.984375 54.828125 56.984375 36.375 
Q 56.984375 17.96875 50.515625 8.265625 
Q 44.046875 -1.421875 31.78125 -1.421875 
Q 19.53125 -1.421875 13.0625 8.265625 
Q 6.59375 17.96875 6.59375 36.375 
Q 6.59375 54.828125 13.0625 64.515625 
Q 19.53125 74.21875 31.78125 74.21875 
z
" id="DejaVuSans-48"/>
       <path d="M 9.8125 72.90625 
L 55.90625 72.90625 
L 55.90625 64.59375 
L 19.671875 64.59375 
L 19.671875 43.015625 
L 54.390625 43.015625 
L 54.390625 34.71875 
L 19.671875 34.71875 
L 19.671875 8.296875 
L 56.78125 8.296875 
L 56.78125 0 
L 9.8125 0 
z
" id="DejaVuSans-69"/>
       <path d="M 46 62.703125 
L 46 35.5 
L 73.1875 35.5 
L 73.1875 27.203125 
L 46 27.203125 
L 46 0 
L 37.796875 0 
L 37.796875 27.203125 
L 10.59375 27.203125 
L 10.59375 35.5 
L 37.796875 35.5 
L 37.796875 62.703125 
z
" id="DejaVuSans-43"/>
       <path d="M 37.796875 64.3125 
L 12.890625 25.390625 
L 37.796875 25.390625 
z
M 35.203125 72.90625 
L 47.609375 72.90625 
L 47.609375 25.390625 
L 58.015625 25.390625 
L 58.015625 17.1875 
L 47.609375 17.1875 
L 47.609375 0 
L 37.796875 0 
L 37.796875 17.1875 
L 4.890625 17.1875 
L 4.890625 26.703125 
z
" id="DejaVuSans-52"/>
      </defs>
      <g transform="translate(116.549536 836.798437)scale(0.1 -0.1)">
       <use xlink:href="#DejaVuSans-49"/>
       <use x="63.623047" xlink:href="#DejaVuSans-46"/>
       <use x="95.410156" xlink:href="#DejaVuSans-48"/>
       <use x="159.033203" xlink:href="#DejaVuSans-69"/>
       <use x="222.216797" xlink:href="#DejaVuSans-43"/>
       <use x="306.005859" xlink:href="#DejaVuSans-48"/>
       <use x="369.628906" xlink:href="#DejaVuSans-52"/>
      </g>
     </g>
    </g>
    <g id="xtick_2">
     <g id="line2d_2">
      <g>
       <use style="stroke:#000000;stroke-width:0.8;" x="244.464283" xlink:href="#m552c8e1095" y="822.2"/>
      </g>
     </g>
     <g id="text_2">
      <!-- 2.5E+04 -->
      <defs>
       <path d="M 19.1875 8.296875 
L 53.609375 8.296875 
L 53.609375 0 
L 7.328125 0 
L 7.328125 8.296875 
Q 12.9375 14.109375 22.625 23.890625 
Q 32.328125 33.6875 34.8125 36.53125 
Q 39.546875 41.84375 41.421875 45.53125 
Q 43.3125 49.21875 43.3125 52.78125 
Q 43.3125 58.59375 39.234375 62.25 
Q 35.15625 65.921875 28.609375 65.921875 
Q 23.96875 65.921875 18.8125 64.3125 
Q 13.671875 62.703125 7.8125 59.421875 
L 7.8125 69.390625 
Q 13.765625 71.78125 18.9375 73 
Q 24.125 74.21875 28.421875 74.21875 
Q 39.75 74.21875 46.484375 68.546875 
Q 53.21875 62.890625 53.21875 53.421875 
Q 53.21875 48.921875 51.53125 44.890625 
Q 49.859375 40.875 45.40625 35.40625 
Q 44.1875 33.984375 37.640625 27.21875 
Q 31.109375 20.453125 19.1875 8.296875 
z
" id="DejaVuSans-50"/>
       <path d="M 10.796875 72.90625 
L 49.515625 72.90625 
L 49.515625 64.59375 
L 19.828125 64.59375 
L 19.828125 46.734375 
Q 21.96875 47.46875 24.109375 47.828125 
Q 26.265625 48.1875 28.421875 48.1875 
Q 40.625 48.1875 47.75 41.5 
Q 54.890625 34.8125 54.890625 23.390625 
Q 54.890625 11.625 47.5625 5.09375 
Q 40.234375 -1.421875 26.90625 -1.421875 
Q 22.3125 -1.421875 17.546875 -0.640625 
Q 12.796875 0.140625 7.71875 1.703125 
L 7.71875 11.625 
Q 12.109375 9.234375 16.796875 8.0625 
Q 21.484375 6.890625 26.703125 6.890625 
Q 35.15625 6.890625 40.078125 11.328125 
Q 45.015625 15.765625 45.015625 23.390625 
Q 45.015625 31 40.078125 35.4375 
Q 35.15625 39.890625 26.703125 39.890625 
Q 22.75 39.890625 18.8125 39.015625 
Q 14.890625 38.140625 10.796875 36.28125 
z
" id="DejaVuSans-53"/>
      </defs>
      <g transform="translate(222.801001 836.798437)scale(0.1 -0.1)">
       <use xlink:href="#DejaVuSans-50"/>
       <use x="63.623047" xlink:href="#DejaVuSans-46"/>
       <use x="95.410156" xlink:href="#DejaVuSans-53"/>
       <use x="159.033203" xlink:href="#DejaVuSans-69"/>
       <use x="222.216797" xlink:href="#DejaVuSans-43"/>
       <use x="306.005859" xlink:href="#DejaVuSans-48"/>
       <use x="369.628906" xlink:href="#DejaVuSans-52"/>
      </g>
     </g>
    </g>
    <g id="xtick_3">
     <g id="line2d_3">
      <g>
       <use style="stroke:#000000;stroke-width:0.8;" x="350.715748" xlink:href="#m552c8e1095" y="822.2"/>
      </g>
     </g>
     <g id="text_3">
      <!-- 5.0E+04 -->
      <g transform="translate(329.052467 836.798437)scale(0.1 -0.1)">
       <use xlink:href="#DejaVuSans-53"/>
       <use x="63.623047" xlink:href="#DejaVuSans-46"/>
       <use x="95.410156" xlink:href="#DejaVuSans-48"/>
       <use x="159.033203" xlink:href="#DejaVuSans-69"/>
       <use x="222.216797" xlink:href="#DejaVuSans-43"/>
       <use x="306.005859" xlink:href="#DejaVuSans-48"/>
       <use x="369.628906" xlink:href="#DejaVuSans-52"/>
      </g>
     </g>
    </g>
    <g id="xtick_4">
     <g id="line2d_4">
      <g>
       <use style="stroke:#000000;stroke-width:0.8;" x="456.967214" xlink:href="#m552c8e1095" y="822.2"/>
      </g>
     </g>
     <g id="text_4">
      <!-- 7.5E+04 -->
      <defs>
       <path d="M 8.203125 72.90625 
L 55.078125 72.90625 
L 55.078125 68.703125 
L 28.609375 0 
L 18.3125 0 
L 43.21875 64.59375 
L 8.203125 64.59375 
z
" id="DejaVuSans-55"/>
      </defs>
      <g transform="translate(435.303933 836.798437)scale(0.1 -0.1)">
       <use xlink:href="#DejaVuSans-55"/>
       <use x="63.623047" xlink:href="#DejaVuSans-46"/>
       <use x="95.410156" xlink:href="#DejaVuSans-53"/>
       <use x="159.033203" xlink:href="#DejaVuSans-69"/>
       <use x="222.216797" xlink:href="#DejaVuSans-43"/>
       <use x="306.005859" xlink:href="#DejaVuSans-48"/>
       <use x="369.628906" xlink:href="#DejaVuSans-52"/>
      </g>
     </g>
    </g>
    <g id="xtick_5">
     <g id="line2d_5">
      <g>
       <use style="stroke:#000000;stroke-width:0.8;" x="563.21868" xlink:href="#m552c8e1095" y="822.2"/>
      </g>
     </g>
     <g id="text_5">
      <!-- 1.0E+05 -->
      <g transform="translate(541.555398 836.798437)scale(0.1 -0.1)">
       <use xlink:href="#DejaVuSans-49"/>
       <use x="63.623047" xlink:href="#DejaVuSans-46"/>
       <use x="95.410156" xlink:href="#DejaVuSans-48"/>
       <use x="159.033203" xlink:href="#DejaVuSans-69"/>
       <use x="222.216797" xlink:href="#DejaVuSans-43"/>
       <use x="306.005859" xlink:href="#DejaVuSans-48"/>
       <use x="369.628906" xlink:href="#DejaVuSans-53"/>
      </g>
     </g>
    </g>
    <g id="xtick_6">
     <g id="line2d_6">
      <g>
       <use style="stroke:#000000;stroke-width:0.8;" x="669.470145" xlink:href="#m552c8e1095" y="822.2"/>
      </g>
     </g>
     <g id="text_6">
      <!-- 2.5E+05 -->
      <g transform="translate(647.806864 836.798437)scale(0.1 -0.1)">
       <use xlink:href="#DejaVuSans-50"/>
       <use x="63.623047" xlink:href="#DejaVuSans-46"/>
       <use x="95.410156" xlink:href="#DejaVuSans-53"/>
       <use x="159.033203" xlink:href="#DejaVuSans-69"/>
       <use x="222.216797" xlink:href="#DejaVuSans-43"/>
       <use x="306.005859" xlink:href="#DejaVuSans-48"/>
       <use x="369.628906" xlink:href="#DejaVuSans-53"/>
      </g>
     </g>
    </g>
    <g id="xtick_7">
     <g id="line2d_7">
      <g>
       <use style="stroke:#000000;stroke-width:0.8;" x="775.721611" xlink:href="#m552c8e1095" y="822.2"/>
      </g>
     </g>
     <g id="text_7">
      <!-- 5.0E+05 -->
      <g transform="translate(754.05833 836.798437)scale(0.1 -0.1)">
       <use xlink:href="#DejaVuSans-53"/>
       <use x="63.623047" xlink:href="#DejaVuSans-46"/>
       <use x="95.410156" xlink:href="#DejaVuSans-48"/>
       <use x="159.033203" xlink:href="#DejaVuSans-69"/>
       <use x="222.216797" xlink:href="#DejaVuSans-43"/>
       <use x="306.005859" xlink:href="#DejaVuSans-48"/>
       <use x="369.628906" xlink:href="#DejaVuSans-53"/>
      </g>
     </g>
    </g>
    <g id="xtick_8">
     <g id="line2d_8">
      <g>
       <use style="stroke:#000000;stroke-width:0.8;" x="881.973076" xlink:href="#m552c8e1095" y="822.2"/>
      </g>
     </g>
     <g id="text_8">
      <!-- 7.5E+05 -->
      <g transform="translate(860.309795 836.798437)scale(0.1 -0.1)">
       <use xlink:href="#DejaVuSans-55"/>
       <use x="63.623047" xlink:href="#DejaVuSans-46"/>
       <use x="95.410156" xlink:href="#DejaVuSans-53"/>
       <use x="159.033203" xlink:href="#DejaVuSans-69"/>
       <use x="222.216797" xlink:href="#DejaVuSans-43"/>
       <use x="306.005859" xlink:href="#DejaVuSans-48"/>
       <use x="369.628906" xlink:href="#DejaVuSans-53"/>
      </g>
     </g>
    </g>
    <g id="xtick_9">
     <g id="line2d_9">
      <g>
       <use style="stroke:#000000;stroke-width:0.8;" x="988.224542" xlink:href="#m552c8e1095" y="822.2"/>
      </g>
     </g>
     <g id="text_9">
      <!-- 1.0E+06 -->
      <defs>
       <path d="M 33.015625 40.375 
Q 26.375 40.375 22.484375 35.828125 
Q 18.609375 31.296875 18.609375 23.390625 
Q 18.609375 15.53125 22.484375 10.953125 
Q 26.375 6.390625 33.015625 6.390625 
Q 39.65625 6.390625 43.53125 10.953125 
Q 47.40625 15.53125 47.40625 23.390625 
Q 47.40625 31.296875 43.53125 35.828125 
Q 39.65625 40.375 33.015625 40.375 
z
M 52.59375 71.296875 
L 52.59375 62.3125 
Q 48.875 64.0625 45.09375 64.984375 
Q 41.3125 65.921875 37.59375 65.921875 
Q 27.828125 65.921875 22.671875 59.328125 
Q 17.53125 52.734375 16.796875 39.40625 
Q 19.671875 43.65625 24.015625 45.921875 
Q 28.375 48.1875 33.59375 48.1875 
Q 44.578125 48.1875 50.953125 41.515625 
Q 57.328125 34.859375 57.328125 23.390625 
Q 57.328125 12.15625 50.6875 5.359375 
Q 44.046875 -1.421875 33.015625 -1.421875 
Q 20.359375 -1.421875 13.671875 8.265625 
Q 6.984375 17.96875 6.984375 36.375 
Q 6.984375 53.65625 15.1875 63.9375 
Q 23.390625 74.21875 37.203125 74.21875 
Q 40.921875 74.21875 44.703125 73.484375 
Q 48.484375 72.75 52.59375 71.296875 
z
" id="DejaVuSans-54"/>
      </defs>
      <g transform="translate(966.561261 836.798437)scale(0.1 -0.1)">
       <use xlink:href="#DejaVuSans-49"/>
       <use x="63.623047" xlink:href="#DejaVuSans-46"/>
       <use x="95.410156" xlink:href="#DejaVuSans-48"/>
       <use x="159.033203" xlink:href="#DejaVuSans-69"/>
       <use x="222.216797" xlink:href="#DejaVuSans-43"/>
       <use x="306.005859" xlink:href="#DejaVuSans-48"/>
       <use x="369.628906" xlink:href="#DejaVuSans-54"/>
      </g>
     </g>
    </g>
    <g id="xtick_10">
     <g id="line2d_10">
      <g>
       <use style="stroke:#000000;stroke-width:0.8;" x="1094.476008" xlink:href="#m552c8e1095" y="822.2"/>
      </g>
     </g>
     <g id="text_10">
      <!-- 2.5E+06 -->
      <g transform="translate(1072.812727 836.798437)scale(0.1 -0.1)">
       <use xlink:href="#DejaVuSans-50"/>
       <use x="63.623047" xlink:href="#DejaVuSans-46"/>
       <use x="95.410156" xlink:href="#DejaVuSans-53"/>
       <use x="159.033203" xlink:href="#DejaVuSans-69"/>
       <use x="222.216797" xlink:href="#DejaVuSans-43"/>
       <use x="306.005859" xlink:href="#DejaVuSans-48"/>
       <use x="369.628906" xlink:href="#DejaVuSans-54"/>
      </g>
     </g>
    </g>
    <g id="xtick_11">
     <g id="line2d_11">
      <g>
       <use style="stroke:#000000;stroke-width:0.8;" x="1200.727473" xlink:href="#m552c8e1095" y="822.2"/>
      </g>
     </g>
     <g id="text_11">
      <!-- 5.0E+06 -->
      <g transform="translate(1179.064192 836.798437)scale(0.1 -0.1)">
       <use xlink:href="#DejaVuSans-53"/>
       <use x="63.623047" xlink:href="#DejaVuSans-46"/>
       <use x="95.410156" xlink:href="#DejaVuSans-48"/>
       <use x="159.033203" xlink:href="#DejaVuSans-69"/>
       <use x="222.216797" xlink:href="#DejaVuSans-43"/>
       <use x="306.005859" xlink:href="#DejaVuSans-48"/>
       <use x="369.628906" xlink:href="#DejaVuSans-54"/>
      </g>
     </g>
    </g>
    <g id="xtick_12">
     <g id="line2d_12">
      <g>
       <use style="stroke:#000000;stroke-width:0.8;" x="1306.978939" xlink:href="#m552c8e1095" y="822.2"/>
      </g>
     </g>
     <g id="text_12">
      <!-- 7.5E+06 -->
      <g transform="translate(1285.315658 836.798437)scale(0.1 -0.1)">
       <use xlink:href="#DejaVuSans-55"/>
       <use x="63.623047" xlink:href="#DejaVuSans-46"/>
       <use x="95.410156" xlink:href="#DejaVuSans-53"/>
       <use x="159.033203" xlink:href="#DejaVuSans-69"/>
       <use x="222.216797" xlink:href="#DejaVuSans-43"/>
       <use x="306.005859" xlink:href="#DejaVuSans-48"/>
       <use x="369.628906" xlink:href="#DejaVuSans-54"/>
      </g>
     </g>
    </g>
    <g id="text_13">
     <!-- Quantidade de elementos -->
     <defs>
      <path d="M 39.40625 66.21875 
Q 28.65625 66.21875 22.328125 58.203125 
Q 16.015625 50.203125 16.015625 36.375 
Q 16.015625 22.609375 22.328125 14.59375 
Q 28.65625 6.59375 39.40625 6.59375 
Q 50.140625 6.59375 56.421875 14.59375 
Q 62.703125 22.609375 62.703125 36.375 
Q 62.703125 50.203125 56.421875 58.203125 
Q 50.140625 66.21875 39.40625 66.21875 
z
M 53.21875 1.3125 
L 66.21875 -12.890625 
L 54.296875 -12.890625 
L 43.5 -1.21875 
Q 41.890625 -1.3125 41.03125 -1.359375 
Q 40.1875 -1.421875 39.40625 -1.421875 
Q 24.03125 -1.421875 14.8125 8.859375 
Q 5.609375 19.140625 5.609375 36.375 
Q 5.609375 53.65625 14.8125 63.9375 
Q 24.03125 74.21875 39.40625 74.21875 
Q 54.734375 74.21875 63.90625 63.9375 
Q 73.09375 53.65625 73.09375 36.375 
Q 73.09375 23.6875 67.984375 14.640625 
Q 62.890625 5.609375 53.21875 1.3125 
z
" id="DejaVuSans-81"/>
      <path d="M 8.5 21.578125 
L 8.5 54.6875 
L 17.484375 54.6875 
L 17.484375 21.921875 
Q 17.484375 14.15625 20.5 10.265625 
Q 23.53125 6.390625 29.59375 6.390625 
Q 36.859375 6.390625 41.078125 11.03125 
Q 45.3125 15.671875 45.3125 23.6875 
L 45.3125 54.6875 
L 54.296875 54.6875 
L 54.296875 0 
L 45.3125 0 
L 45.3125 8.40625 
Q 42.046875 3.421875 37.71875 1 
Q 33.40625 -1.421875 27.6875 -1.421875 
Q 18.265625 -1.421875 13.375 4.4375 
Q 8.5 10.296875 8.5 21.578125 
z
M 31.109375 56 
z
" id="DejaVuSans-117"/>
      <path d="M 34.28125 27.484375 
Q 23.390625 27.484375 19.1875 25 
Q 14.984375 22.515625 14.984375 16.5 
Q 14.984375 11.71875 18.140625 8.90625 
Q 21.296875 6.109375 26.703125 6.109375 
Q 34.1875 6.109375 38.703125 11.40625 
Q 43.21875 16.703125 43.21875 25.484375 
L 43.21875 27.484375 
z
M 52.203125 31.203125 
L 52.203125 0 
L 43.21875 0 
L 43.21875 8.296875 
Q 40.140625 3.328125 35.546875 0.953125 
Q 30.953125 -1.421875 24.3125 -1.421875 
Q 15.921875 -1.421875 10.953125 3.296875 
Q 6 8.015625 6 15.921875 
Q 6 25.140625 12.171875 29.828125 
Q 18.359375 34.515625 30.609375 34.515625 
L 43.21875 34.515625 
L 43.21875 35.40625 
Q 43.21875 41.609375 39.140625 45 
Q 35.0625 48.390625 27.6875 48.390625 
Q 23 48.390625 18.546875 47.265625 
Q 14.109375 46.140625 10.015625 43.890625 
L 10.015625 52.203125 
Q 14.9375 54.109375 19.578125 55.046875 
Q 24.21875 56 28.609375 56 
Q 40.484375 56 46.34375 49.84375 
Q 52.203125 43.703125 52.203125 31.203125 
z
" id="DejaVuSans-97"/>
      <path d="M 54.890625 33.015625 
L 54.890625 0 
L 45.90625 0 
L 45.90625 32.71875 
Q 45.90625 40.484375 42.875 44.328125 
Q 39.84375 48.1875 33.796875 48.1875 
Q 26.515625 48.1875 22.3125 43.546875 
Q 18.109375 38.921875 18.109375 30.90625 
L 18.109375 0 
L 9.078125 0 
L 9.078125 54.6875 
L 18.109375 54.6875 
L 18.109375 46.1875 
Q 21.34375 51.125 25.703125 53.5625 
Q 30.078125 56 35.796875 56 
Q 45.21875 56 50.046875 50.171875 
Q 54.890625 44.34375 54.890625 33.015625 
z
" id="DejaVuSans-110"/>
      <path d="M 18.3125 70.21875 
L 18.3125 54.6875 
L 36.8125 54.6875 
L 36.8125 47.703125 
L 18.3125 47.703125 
L 18.3125 18.015625 
Q 18.3125 11.328125 20.140625 9.421875 
Q 21.96875 7.515625 27.59375 7.515625 
L 36.8125 7.515625 
L 36.8125 0 
L 27.59375 0 
Q 17.1875 0 13.234375 3.875 
Q 9.28125 7.765625 9.28125 18.015625 
L 9.28125 47.703125 
L 2.6875 47.703125 
L 2.6875 54.6875 
L 9.28125 54.6875 
L 9.28125 70.21875 
z
" id="DejaVuSans-116"/>
      <path d="M 9.421875 54.6875 
L 18.40625 54.6875 
L 18.40625 0 
L 9.421875 0 
z
M 9.421875 75.984375 
L 18.40625 75.984375 
L 18.40625 64.59375 
L 9.421875 64.59375 
z
" id="DejaVuSans-105"/>
      <path d="M 45.40625 46.390625 
L 45.40625 75.984375 
L 54.390625 75.984375 
L 54.390625 0 
L 45.40625 0 
L 45.40625 8.203125 
Q 42.578125 3.328125 38.25 0.953125 
Q 33.9375 -1.421875 27.875 -1.421875 
Q 17.96875 -1.421875 11.734375 6.484375 
Q 5.515625 14.40625 5.515625 27.296875 
Q 5.515625 40.1875 11.734375 48.09375 
Q 17.96875 56 27.875 56 
Q 33.9375 56 38.25 53.625 
Q 42.578125 51.265625 45.40625 46.390625 
z
M 14.796875 27.296875 
Q 14.796875 17.390625 18.875 11.75 
Q 22.953125 6.109375 30.078125 6.109375 
Q 37.203125 6.109375 41.296875 11.75 
Q 45.40625 17.390625 45.40625 27.296875 
Q 45.40625 37.203125 41.296875 42.84375 
Q 37.203125 48.484375 30.078125 48.484375 
Q 22.953125 48.484375 18.875 42.84375 
Q 14.796875 37.203125 14.796875 27.296875 
z
" id="DejaVuSans-100"/>
      <path d="M 56.203125 29.59375 
L 56.203125 25.203125 
L 14.890625 25.203125 
Q 15.484375 15.921875 20.484375 11.0625 
Q 25.484375 6.203125 34.421875 6.203125 
Q 39.59375 6.203125 44.453125 7.46875 
Q 49.3125 8.734375 54.109375 11.28125 
L 54.109375 2.78125 
Q 49.265625 0.734375 44.1875 -0.34375 
Q 39.109375 -1.421875 33.890625 -1.421875 
Q 20.796875 -1.421875 13.15625 6.1875 
Q 5.515625 13.8125 5.515625 26.8125 
Q 5.515625 40.234375 12.765625 48.109375 
Q 20.015625 56 32.328125 56 
Q 43.359375 56 49.78125 48.890625 
Q 56.203125 41.796875 56.203125 29.59375 
z
M 47.21875 32.234375 
Q 47.125 39.59375 43.09375 43.984375 
Q 39.0625 48.390625 32.421875 48.390625 
Q 24.90625 48.390625 20.390625 44.140625 
Q 15.875 39.890625 15.1875 32.171875 
z
" id="DejaVuSans-101"/>
      <path id="DejaVuSans-32"/>
      <path d="M 9.421875 75.984375 
L 18.40625 75.984375 
L 18.40625 0 
L 9.421875 0 
z
" id="DejaVuSans-108"/>
      <path d="M 52 44.1875 
Q 55.375 50.25 60.0625 53.125 
Q 64.75 56 71.09375 56 
Q 79.640625 56 84.28125 50.015625 
Q 88.921875 44.046875 88.921875 33.015625 
L 88.921875 0 
L 79.890625 0 
L 79.890625 32.71875 
Q 79.890625 40.578125 77.09375 44.375 
Q 74.3125 48.1875 68.609375 48.1875 
Q 61.625 48.1875 57.5625 43.546875 
Q 53.515625 38.921875 53.515625 30.90625 
L 53.515625 0 
L 44.484375 0 
L 44.484375 32.71875 
Q 44.484375 40.625 41.703125 44.40625 
Q 38.921875 48.1875 33.109375 48.1875 
Q 26.21875 48.1875 22.15625 43.53125 
Q 18.109375 38.875 18.109375 30.90625 
L 18.109375 0 
L 9.078125 0 
L 9.078125 54.6875 
L 18.109375 54.6875 
L 18.109375 46.1875 
Q 21.1875 51.21875 25.484375 53.609375 
Q 29.78125 56 35.6875 56 
Q 41.65625 56 45.828125 52.96875 
Q 50 49.953125 52 44.1875 
z
" id="DejaVuSans-109"/>
      <path d="M 30.609375 48.390625 
Q 23.390625 48.390625 19.1875 42.75 
Q 14.984375 37.109375 14.984375 27.296875 
Q 14.984375 17.484375 19.15625 11.84375 
Q 23.34375 6.203125 30.609375 6.203125 
Q 37.796875 6.203125 41.984375 11.859375 
Q 46.1875 17.53125 46.1875 27.296875 
Q 46.1875 37.015625 41.984375 42.703125 
Q 37.796875 48.390625 30.609375 48.390625 
z
M 30.609375 56 
Q 42.328125 56 49.015625 48.375 
Q 55.71875 40.765625 55.71875 27.296875 
Q 55.71875 13.875 49.015625 6.21875 
Q 42.328125 -1.421875 30.609375 -1.421875 
Q 18.84375 -1.421875 12.171875 6.21875 
Q 5.515625 13.875 5.515625 27.296875 
Q 5.515625 40.765625 12.171875 48.375 
Q 18.84375 56 30.609375 56 
z
" id="DejaVuSans-111"/>
      <path d="M 44.28125 53.078125 
L 44.28125 44.578125 
Q 40.484375 46.53125 36.375 47.5 
Q 32.28125 48.484375 27.875 48.484375 
Q 21.1875 48.484375 17.84375 46.4375 
Q 14.5 44.390625 14.5 40.28125 
Q 14.5 37.15625 16.890625 35.375 
Q 19.28125 33.59375 26.515625 31.984375 
L 29.59375 31.296875 
Q 39.15625 29.25 43.1875 25.515625 
Q 47.21875 21.78125 47.21875 15.09375 
Q 47.21875 7.46875 41.1875 3.015625 
Q 35.15625 -1.421875 24.609375 -1.421875 
Q 20.21875 -1.421875 15.453125 -0.5625 
Q 10.6875 0.296875 5.421875 2 
L 5.421875 11.28125 
Q 10.40625 8.6875 15.234375 7.390625 
Q 20.0625 6.109375 24.8125 6.109375 
Q 31.15625 6.109375 34.5625 8.28125 
Q 37.984375 10.453125 37.984375 14.40625 
Q 37.984375 18.0625 35.515625 20.015625 
Q 33.0625 21.96875 24.703125 23.78125 
L 21.578125 24.515625 
Q 13.234375 26.265625 9.515625 29.90625 
Q 5.8125 33.546875 5.8125 39.890625 
Q 5.8125 47.609375 11.28125 51.796875 
Q 16.75 56 26.8125 56 
Q 31.78125 56 36.171875 55.265625 
Q 40.578125 54.546875 44.28125 53.078125 
z
" id="DejaVuSans-115"/>
     </defs>
     <g transform="translate(684.675781 850.476562)scale(0.1 -0.1)">
      <use xlink:href="#DejaVuSans-81"/>
      <use x="78.710938" xlink:href="#DejaVuSans-117"/>
      <use x="142.089844" xlink:href="#DejaVuSans-97"/>
      <use x="203.369141" xlink:href="#DejaVuSans-110"/>
      <use x="266.748047" xlink:href="#DejaVuSans-116"/>
      <use x="305.957031" xlink:href="#DejaVuSans-105"/>
      <use x="333.740234" xlink:href="#DejaVuSans-100"/>
      <use x="397.216797" xlink:href="#DejaVuSans-97"/>
      <use x="458.496094" xlink:href="#DejaVuSans-100"/>
      <use x="521.972656" xlink:href="#DejaVuSans-101"/>
      <use x="583.496094" xlink:href="#DejaVuSans-32"/>
      <use x="615.283203" xlink:href="#DejaVuSans-100"/>
      <use x="678.759766" xlink:href="#DejaVuSans-101"/>
      <use x="740.283203" xlink:href="#DejaVuSans-32"/>
      <use x="772.070312" xlink:href="#DejaVuSans-101"/>
      <use x="833.59375" xlink:href="#DejaVuSans-108"/>
      <use x="861.376953" xlink:href="#DejaVuSans-101"/>
      <use x="922.900391" xlink:href="#DejaVuSans-109"/>
      <use x="1020.3125" xlink:href="#DejaVuSans-101"/>
      <use x="1081.835938" xlink:href="#DejaVuSans-110"/>
      <use x="1145.214844" xlink:href="#DejaVuSans-116"/>
      <use x="1184.423828" xlink:href="#DejaVuSans-111"/>
      <use x="1245.605469" xlink:href="#DejaVuSans-115"/>
     </g>
    </g>
   </g>
   <g id="matplotlib.axis_2">
    <g id="ytick_1">
     <g id="line2d_13">
      <defs>
       <path d="M 0 0 
L -3.5 0 
" id="m1da8ba8bcd" style="stroke:#000000;stroke-width:0.8;"/>
      </defs>
      <g>
       <use style="stroke:#000000;stroke-width:0.8;" x="69.925" xlink:href="#m1da8ba8bcd" y="822.2"/>
      </g>
     </g>
     <g id="text_14">
      <!-- 0 -->
      <g transform="translate(56.5625 825.999219)scale(0.1 -0.1)">
       <use xlink:href="#DejaVuSans-48"/>
      </g>
     </g>
    </g>
    <g id="ytick_2">
     <g id="line2d_14">
      <g>
       <use style="stroke:#000000;stroke-width:0.8;" x="69.925" xlink:href="#m1da8ba8bcd" y="656.120477"/>
      </g>
     </g>
     <g id="text_15">
      <!-- 200000 -->
      <g transform="translate(24.75 659.919696)scale(0.1 -0.1)">
       <use xlink:href="#DejaVuSans-50"/>
       <use x="63.623047" xlink:href="#DejaVuSans-48"/>
       <use x="127.246094" xlink:href="#DejaVuSans-48"/>
       <use x="190.869141" xlink:href="#DejaVuSans-48"/>
       <use x="254.492188" xlink:href="#DejaVuSans-48"/>
       <use x="318.115234" xlink:href="#DejaVuSans-48"/>
      </g>
     </g>
    </g>
    <g id="ytick_3">
     <g id="line2d_15">
      <g>
       <use style="stroke:#000000;stroke-width:0.8;" x="69.925" xlink:href="#m1da8ba8bcd" y="490.040955"/>
      </g>
     </g>
     <g id="text_16">
      <!-- 400000 -->
      <g transform="translate(24.75 493.840173)scale(0.1 -0.1)">
       <use xlink:href="#DejaVuSans-52"/>
       <use x="63.623047" xlink:href="#DejaVuSans-48"/>
       <use x="127.246094" xlink:href="#DejaVuSans-48"/>
       <use x="190.869141" xlink:href="#DejaVuSans-48"/>
       <use x="254.492188" xlink:href="#DejaVuSans-48"/>
       <use x="318.115234" xlink:href="#DejaVuSans-48"/>
      </g>
     </g>
    </g>
    <g id="ytick_4">
     <g id="line2d_16">
      <g>
       <use style="stroke:#000000;stroke-width:0.8;" x="69.925" xlink:href="#m1da8ba8bcd" y="323.961432"/>
      </g>
     </g>
     <g id="text_17">
      <!-- 600000 -->
      <g transform="translate(24.75 327.760651)scale(0.1 -0.1)">
       <use xlink:href="#DejaVuSans-54"/>
       <use x="63.623047" xlink:href="#DejaVuSans-48"/>
       <use x="127.246094" xlink:href="#DejaVuSans-48"/>
       <use x="190.869141" xlink:href="#DejaVuSans-48"/>
       <use x="254.492188" xlink:href="#DejaVuSans-48"/>
       <use x="318.115234" xlink:href="#DejaVuSans-48"/>
      </g>
     </g>
    </g>
    <g id="ytick_5">
     <g id="line2d_17">
      <g>
       <use style="stroke:#000000;stroke-width:0.8;" x="69.925" xlink:href="#m1da8ba8bcd" y="157.881909"/>
      </g>
     </g>
     <g id="text_18">
      <!-- 800000 -->
      <defs>
       <path d="M 31.78125 34.625 
Q 24.75 34.625 20.71875 30.859375 
Q 16.703125 27.09375 16.703125 20.515625 
Q 16.703125 13.921875 20.71875 10.15625 
Q 24.75 6.390625 31.78125 6.390625 
Q 38.8125 6.390625 42.859375 10.171875 
Q 46.921875 13.96875 46.921875 20.515625 
Q 46.921875 27.09375 42.890625 30.859375 
Q 38.875 34.625 31.78125 34.625 
z
M 21.921875 38.8125 
Q 15.578125 40.375 12.03125 44.71875 
Q 8.5 49.078125 8.5 55.328125 
Q 8.5 64.0625 14.71875 69.140625 
Q 20.953125 74.21875 31.78125 74.21875 
Q 42.671875 74.21875 48.875 69.140625 
Q 55.078125 64.0625 55.078125 55.328125 
Q 55.078125 49.078125 51.53125 44.71875 
Q 48 40.375 41.703125 38.8125 
Q 48.828125 37.15625 52.796875 32.3125 
Q 56.78125 27.484375 56.78125 20.515625 
Q 56.78125 9.90625 50.3125 4.234375 
Q 43.84375 -1.421875 31.78125 -1.421875 
Q 19.734375 -1.421875 13.25 4.234375 
Q 6.78125 9.90625 6.78125 20.515625 
Q 6.78125 27.484375 10.78125 32.3125 
Q 14.796875 37.15625 21.921875 38.8125 
z
M 18.3125 54.390625 
Q 18.3125 48.734375 21.84375 45.5625 
Q 25.390625 42.390625 31.78125 42.390625 
Q 38.140625 42.390625 41.71875 45.5625 
Q 45.3125 48.734375 45.3125 54.390625 
Q 45.3125 60.0625 41.71875 63.234375 
Q 38.140625 66.40625 31.78125 66.40625 
Q 25.390625 66.40625 21.84375 63.234375 
Q 18.3125 60.0625 18.3125 54.390625 
z
" id="DejaVuSans-56"/>
      </defs>
      <g transform="translate(24.75 161.681128)scale(0.1 -0.1)">
       <use xlink:href="#DejaVuSans-56"/>
       <use x="63.623047" xlink:href="#DejaVuSans-48"/>
       <use x="127.246094" xlink:href="#DejaVuSans-48"/>
       <use x="190.869141" xlink:href="#DejaVuSans-48"/>
       <use x="254.492188" xlink:href="#DejaVuSans-48"/>
       <use x="318.115234" xlink:href="#DejaVuSans-48"/>
      </g>
     </g>
    </g>
    <g id="text_19">
     <!-- Tempo médio de execução (ms) -->
     <defs>
      <path d="M -0.296875 72.90625 
L 61.375 72.90625 
L 61.375 64.59375 
L 35.5 64.59375 
L 35.5 0 
L 25.59375 0 
L 25.59375 64.59375 
L -0.296875 64.59375 
z
" id="DejaVuSans-84"/>
      <path d="M 18.109375 8.203125 
L 18.109375 -20.796875 
L 9.078125 -20.796875 
L 9.078125 54.6875 
L 18.109375 54.6875 
L 18.109375 46.390625 
Q 20.953125 51.265625 25.265625 53.625 
Q 29.59375 56 35.59375 56 
Q 45.5625 56 51.78125 48.09375 
Q 58.015625 40.1875 58.015625 27.296875 
Q 58.015625 14.40625 51.78125 6.484375 
Q 45.5625 -1.421875 35.59375 -1.421875 
Q 29.59375 -1.421875 25.265625 0.953125 
Q 20.953125 3.328125 18.109375 8.203125 
z
M 48.6875 27.296875 
Q 48.6875 37.203125 44.609375 42.84375 
Q 40.53125 48.484375 33.40625 48.484375 
Q 26.265625 48.484375 22.1875 42.84375 
Q 18.109375 37.203125 18.109375 27.296875 
Q 18.109375 17.390625 22.1875 11.75 
Q 26.265625 6.109375 33.40625 6.109375 
Q 40.53125 6.109375 44.609375 11.75 
Q 48.6875 17.390625 48.6875 27.296875 
z
" id="DejaVuSans-112"/>
      <path d="M 56.203125 29.59375 
L 56.203125 25.203125 
L 14.890625 25.203125 
Q 15.484375 15.921875 20.484375 11.0625 
Q 25.484375 6.203125 34.421875 6.203125 
Q 39.59375 6.203125 44.453125 7.46875 
Q 49.3125 8.734375 54.109375 11.28125 
L 54.109375 2.78125 
Q 49.265625 0.734375 44.1875 -0.34375 
Q 39.109375 -1.421875 33.890625 -1.421875 
Q 20.796875 -1.421875 13.15625 6.1875 
Q 5.515625 13.8125 5.515625 26.8125 
Q 5.515625 40.234375 12.765625 48.109375 
Q 20.015625 56 32.328125 56 
Q 43.359375 56 49.78125 48.890625 
Q 56.203125 41.796875 56.203125 29.59375 
z
M 47.21875 32.234375 
Q 47.125 39.59375 43.09375 43.984375 
Q 39.0625 48.390625 32.421875 48.390625 
Q 24.90625 48.390625 20.390625 44.140625 
Q 15.875 39.890625 15.1875 32.171875 
z
M 38.53125 79.984375 
L 48.25 79.984375 
L 32.34375 61.625 
L 24.859375 61.625 
z
" id="DejaVuSans-233"/>
      <path d="M 54.890625 54.6875 
L 35.109375 28.078125 
L 55.90625 0 
L 45.3125 0 
L 29.390625 21.484375 
L 13.484375 0 
L 2.875 0 
L 24.125 28.609375 
L 4.6875 54.6875 
L 15.28125 54.6875 
L 29.78125 35.203125 
L 44.28125 54.6875 
z
" id="DejaVuSans-120"/>
      <path d="M 48.78125 52.59375 
L 48.78125 44.1875 
Q 44.96875 46.296875 41.140625 47.34375 
Q 37.3125 48.390625 33.40625 48.390625 
Q 24.65625 48.390625 19.8125 42.84375 
Q 14.984375 37.3125 14.984375 27.296875 
Q 14.984375 17.28125 19.8125 11.734375 
Q 24.65625 6.203125 33.40625 6.203125 
Q 37.3125 6.203125 41.140625 7.25 
Q 44.96875 8.296875 48.78125 10.40625 
L 48.78125 2.09375 
Q 45.015625 0.34375 40.984375 -0.53125 
Q 36.96875 -1.421875 32.421875 -1.421875 
Q 20.0625 -1.421875 12.78125 6.34375 
Q 5.515625 14.109375 5.515625 27.296875 
Q 5.515625 40.671875 12.859375 48.328125 
Q 20.21875 56 33.015625 56 
Q 37.15625 56 41.109375 55.140625 
Q 45.0625 54.296875 48.78125 52.59375 
z
" id="DejaVuSans-99"/>
      <path d="M 48.78125 52.59375 
L 48.78125 44.1875 
Q 44.96875 46.296875 41.140625 47.34375 
Q 37.3125 48.390625 33.40625 48.390625 
Q 24.65625 48.390625 19.8125 42.84375 
Q 14.984375 37.3125 14.984375 27.296875 
Q 14.984375 17.28125 19.8125 11.734375 
Q 24.65625 6.203125 33.40625 6.203125 
Q 37.3125 6.203125 41.140625 7.25 
Q 44.96875 8.296875 48.78125 10.40625 
L 48.78125 2.09375 
Q 45.015625 0.34375 40.984375 -0.53125 
Q 36.96875 -1.421875 32.421875 -1.421875 
Q 20.0625 -1.421875 12.78125 6.34375 
Q 5.515625 14.109375 5.515625 27.296875 
Q 5.515625 40.671875 12.859375 48.328125 
Q 20.21875 56 33.015625 56 
Q 37.15625 56 41.109375 55.140625 
Q 45.0625 54.296875 48.78125 52.59375 
z
M 36.109375 0 
Q 38.78125 -3.03125 40.09375 -5.59375 
Q 41.421875 -8.15625 41.421875 -10.5 
Q 41.421875 -14.84375 38.484375 -17.0625 
Q 35.5625 -19.28125 29.796875 -19.28125 
Q 27.5625 -19.28125 25.4375 -18.984375 
Q 23.3125 -18.703125 21.203125 -18.109375 
L 21.203125 -11.71875 
Q 22.875 -12.546875 24.671875 -12.90625 
Q 26.484375 -13.28125 28.78125 -13.28125 
Q 31.65625 -13.28125 33.125 -12.109375 
Q 34.59375 -10.9375 34.59375 -8.6875 
Q 34.59375 -7.234375 33.53125 -5.109375 
Q 32.484375 -2.984375 30.296875 0 
z
" id="DejaVuSans-231"/>
      <path d="M 34.28125 27.484375 
Q 23.390625 27.484375 19.1875 25 
Q 14.984375 22.515625 14.984375 16.5 
Q 14.984375 11.71875 18.140625 8.90625 
Q 21.296875 6.109375 26.703125 6.109375 
Q 34.1875 6.109375 38.703125 11.40625 
Q 43.21875 16.703125 43.21875 25.484375 
L 43.21875 27.484375 
z
M 52.203125 31.203125 
L 52.203125 0 
L 43.21875 0 
L 43.21875 8.296875 
Q 40.140625 3.328125 35.546875 0.953125 
Q 30.953125 -1.421875 24.3125 -1.421875 
Q 15.921875 -1.421875 10.953125 3.296875 
Q 6 8.015625 6 15.921875 
Q 6 25.140625 12.171875 29.828125 
Q 18.359375 34.515625 30.609375 34.515625 
L 43.21875 34.515625 
L 43.21875 35.40625 
Q 43.21875 41.609375 39.140625 45 
Q 35.0625 48.390625 27.6875 48.390625 
Q 23 48.390625 18.546875 47.265625 
Q 14.109375 46.140625 10.015625 43.890625 
L 10.015625 52.203125 
Q 14.9375 54.109375 19.578125 55.046875 
Q 24.21875 56 28.609375 56 
Q 40.484375 56 46.34375 49.84375 
Q 52.203125 43.703125 52.203125 31.203125 
z
M 28.8125 66.890625 
L 26.015625 69.578125 
Q 24.953125 70.5625 24.140625 71.015625 
Q 23.34375 71.484375 22.703125 71.484375 
Q 20.84375 71.484375 19.96875 69.703125 
Q 19.09375 67.921875 18.984375 63.921875 
L 12.890625 63.921875 
Q 12.984375 70.515625 15.46875 74.09375 
Q 17.96875 77.6875 22.40625 77.6875 
Q 24.265625 77.6875 25.828125 77 
Q 27.390625 76.3125 29.203125 74.703125 
L 31.984375 72.015625 
Q 33.046875 71.046875 33.859375 70.578125 
Q 34.671875 70.125 35.296875 70.125 
Q 37.15625 70.125 38.03125 71.90625 
Q 38.90625 73.6875 39.015625 77.6875 
L 45.109375 77.6875 
Q 45.015625 71.09375 42.515625 67.5 
Q 40.03125 63.921875 35.59375 63.921875 
Q 33.734375 63.921875 32.171875 64.59375 
Q 30.609375 65.28125 28.8125 66.890625 
z
" id="DejaVuSans-227"/>
      <path d="M 31 75.875 
Q 24.46875 64.65625 21.28125 53.65625 
Q 18.109375 42.671875 18.109375 31.390625 
Q 18.109375 20.125 21.3125 9.0625 
Q 24.515625 -2 31 -13.1875 
L 23.1875 -13.1875 
Q 15.875 -1.703125 12.234375 9.375 
Q 8.59375 20.453125 8.59375 31.390625 
Q 8.59375 42.28125 12.203125 53.3125 
Q 15.828125 64.359375 23.1875 75.875 
z
" id="DejaVuSans-40"/>
      <path d="M 8.015625 75.875 
L 15.828125 75.875 
Q 23.140625 64.359375 26.78125 53.3125 
Q 30.421875 42.28125 30.421875 31.390625 
Q 30.421875 20.453125 26.78125 9.375 
Q 23.140625 -1.703125 15.828125 -13.1875 
L 8.015625 -13.1875 
Q 14.5 -2 17.703125 9.0625 
Q 20.90625 20.125 20.90625 31.390625 
Q 20.90625 42.671875 17.703125 53.65625 
Q 14.5 64.65625 8.015625 75.875 
z
" id="DejaVuSans-41"/>
     </defs>
     <g transform="translate(18.670312 505.174219)rotate(-90)scale(0.1 -0.1)">
      <use xlink:href="#DejaVuSans-84"/>
      <use x="60.818359" xlink:href="#DejaVuSans-101"/>
      <use x="122.341797" xlink:href="#DejaVuSans-109"/>
      <use x="219.753906" xlink:href="#DejaVuSans-112"/>
      <use x="283.230469" xlink:href="#DejaVuSans-111"/>
      <use x="344.412109" xlink:href="#DejaVuSans-32"/>
      <use x="376.199219" xlink:href="#DejaVuSans-109"/>
      <use x="473.611328" xlink:href="#DejaVuSans-233"/>
      <use x="535.134766" xlink:href="#DejaVuSans-100"/>
      <use x="598.611328" xlink:href="#DejaVuSans-105"/>
      <use x="626.394531" xlink:href="#DejaVuSans-111"/>
      <use x="687.576172" xlink:href="#DejaVuSans-32"/>
      <use x="719.363281" xlink:href="#DejaVuSans-100"/>
      <use x="782.839844" xlink:href="#DejaVuSans-101"/>
      <use x="844.363281" xlink:href="#DejaVuSans-32"/>
      <use x="876.150391" xlink:href="#DejaVuSans-101"/>
      <use x="937.658203" xlink:href="#DejaVuSans-120"/>
      <use x="996.791016" xlink:href="#DejaVuSans-101"/>
      <use x="1058.314453" xlink:href="#DejaVuSans-99"/>
      <use x="1113.294922" xlink:href="#DejaVuSans-117"/>
      <use x="1176.673828" xlink:href="#DejaVuSans-231"/>
      <use x="1231.654297" xlink:href="#DejaVuSans-227"/>
      <use x="1292.933594" xlink:href="#DejaVuSans-111"/>
      <use x="1354.115234" xlink:href="#DejaVuSans-32"/>
      <use x="1385.902344" xlink:href="#DejaVuSans-40"/>
      <use x="1424.916016" xlink:href="#DejaVuSans-109"/>
      <use x="1522.328125" xlink:href="#DejaVuSans-115"/>
      <use x="1574.427734" xlink:href="#DejaVuSans-41"/>
     </g>
    </g>
   </g>
   <g id="line2d_18">
    <path clip-path="url(#pf6890dd8b0)" d="M 136.491543 64.676421 
L 242.743009 64.676421 
L 348.994475 64.676421 
L 455.24594 64.676421 
L 561.497406 64.676421 
L 667.748871 64.676421 
L 774.000337 64.676421 
L 880.251803 64.676421 
L 986.503268 64.676421 
L 1092.754734 64.676421 
L 1199.0062 64.676421 
L 1305.257665 64.676421 
" style="fill:none;stroke:#ff0000;stroke-dasharray:7.4,3.2;stroke-dashoffset:0;stroke-opacity:0.75;stroke-width:2;"/>
   </g>
   <g id="patch_87">
    <path d="M 69.925 822.2 
L 69.925 26.8 
" style="fill:none;stroke:#000000;stroke-linecap:square;stroke-linejoin:miter;stroke-width:0.8;"/>
   </g>
   <g id="patch_88">
    <path d="M 1429.2 822.2 
L 1429.2 26.8 
" style="fill:none;stroke:#000000;stroke-linecap:square;stroke-linejoin:miter;stroke-width:0.8;"/>
   </g>
   <g id="patch_89">
    <path d="M 69.925 822.2 
L 1429.2 822.2 
" style="fill:none;stroke:#000000;stroke-linecap:square;stroke-linejoin:miter;stroke-width:0.8;"/>
   </g>
   <g id="patch_90">
    <path d="M 69.925 26.8 
L 1429.2 26.8 
" style="fill:none;stroke:#000000;stroke-linecap:square;stroke-linejoin:miter;stroke-width:0.8;"/>
   </g>
   <g id="text_20">
    <!-- Execução dos algoritmos de 10000 a 7500000 elementos -->
    <defs>
     <path d="M 45.40625 27.984375 
Q 45.40625 37.75 41.375 43.109375 
Q 37.359375 48.484375 30.078125 48.484375 
Q 22.859375 48.484375 18.828125 43.109375 
Q 14.796875 37.75 14.796875 27.984375 
Q 14.796875 18.265625 18.828125 12.890625 
Q 22.859375 7.515625 30.078125 7.515625 
Q 37.359375 7.515625 41.375 12.890625 
Q 45.40625 18.265625 45.40625 27.984375 
z
M 54.390625 6.78125 
Q 54.390625 -7.171875 48.1875 -13.984375 
Q 42 -20.796875 29.203125 -20.796875 
Q 24.46875 -20.796875 20.265625 -20.09375 
Q 16.0625 -19.390625 12.109375 -17.921875 
L 12.109375 -9.1875 
Q 16.0625 -11.328125 19.921875 -12.34375 
Q 23.78125 -13.375 27.78125 -13.375 
Q 36.625 -13.375 41.015625 -8.765625 
Q 45.40625 -4.15625 45.40625 5.171875 
L 45.40625 9.625 
Q 42.625 4.78125 38.28125 2.390625 
Q 33.9375 0 27.875 0 
Q 17.828125 0 11.671875 7.65625 
Q 5.515625 15.328125 5.515625 27.984375 
Q 5.515625 40.671875 11.671875 48.328125 
Q 17.828125 56 27.875 56 
Q 33.9375 56 38.28125 53.609375 
Q 42.625 51.21875 45.40625 46.390625 
L 45.40625 54.6875 
L 54.390625 54.6875 
z
" id="DejaVuSans-103"/>
     <path d="M 41.109375 46.296875 
Q 39.59375 47.171875 37.8125 47.578125 
Q 36.03125 48 33.890625 48 
Q 26.265625 48 22.1875 43.046875 
Q 18.109375 38.09375 18.109375 28.8125 
L 18.109375 0 
L 9.078125 0 
L 9.078125 54.6875 
L 18.109375 54.6875 
L 18.109375 46.1875 
Q 20.953125 51.171875 25.484375 53.578125 
Q 30.03125 56 36.53125 56 
Q 37.453125 56 38.578125 55.875 
Q 39.703125 55.765625 41.0625 55.515625 
z
" id="DejaVuSans-114"/>
    </defs>
    <g transform="translate(576.350937 20.8)scale(0.12 -0.12)">
     <use xlink:href="#DejaVuSans-69"/>
     <use x="63.183594" xlink:href="#DejaVuSans-120"/>
     <use x="122.316406" xlink:href="#DejaVuSans-101"/>
     <use x="183.839844" xlink:href="#DejaVuSans-99"/>
     <use x="238.820312" xlink:href="#DejaVuSans-117"/>
     <use x="302.199219" xlink:href="#DejaVuSans-231"/>
     <use x="357.179688" xlink:href="#DejaVuSans-227"/>
     <use x="418.458984" xlink:href="#DejaVuSans-111"/>
     <use x="479.640625" xlink:href="#DejaVuSans-32"/>
     <use x="511.427734" xlink:href="#DejaVuSans-100"/>
     <use x="574.904297" xlink:href="#DejaVuSans-111"/>
     <use x="636.085938" xlink:href="#DejaVuSans-115"/>
     <use x="688.185547" xlink:href="#DejaVuSans-32"/>
     <use x="719.972656" xlink:href="#DejaVuSans-97"/>
     <use x="781.251953" xlink:href="#DejaVuSans-108"/>
     <use x="809.035156" xlink:href="#DejaVuSans-103"/>
     <use x="872.511719" xlink:href="#DejaVuSans-111"/>
     <use x="933.693359" xlink:href="#DejaVuSans-114"/>
     <use x="974.806641" xlink:href="#DejaVuSans-105"/>
     <use x="1002.589844" xlink:href="#DejaVuSans-116"/>
     <use x="1041.798828" xlink:href="#DejaVuSans-109"/>
     <use x="1139.210938" xlink:href="#DejaVuSans-111"/>
     <use x="1200.392578" xlink:href="#DejaVuSans-115"/>
     <use x="1252.492188" xlink:href="#DejaVuSans-32"/>
     <use x="1284.279297" xlink:href="#DejaVuSans-100"/>
     <use x="1347.755859" xlink:href="#DejaVuSans-101"/>
     <use x="1409.279297" xlink:href="#DejaVuSans-32"/>
     <use x="1441.066406" xlink:href="#DejaVuSans-49"/>
     <use x="1504.689453" xlink:href="#DejaVuSans-48"/>
     <use x="1568.3125" xlink:href="#DejaVuSans-48"/>
     <use x="1631.935547" xlink:href="#DejaVuSans-48"/>
     <use x="1695.558594" xlink:href="#DejaVuSans-48"/>
     <use x="1759.181641" xlink:href="#DejaVuSans-32"/>
     <use x="1790.96875" xlink:href="#DejaVuSans-97"/>
     <use x="1852.248047" xlink:href="#DejaVuSans-32"/>
     <use x="1884.035156" xlink:href="#DejaVuSans-55"/>
     <use x="1947.658203" xlink:href="#DejaVuSans-53"/>
     <use x="2011.28125" xlink:href="#DejaVuSans-48"/>
     <use x="2074.904297" xlink:href="#DejaVuSans-48"/>
     <use x="2138.527344" xlink:href="#DejaVuSans-48"/>
     <use x="2202.150391" xlink:href="#DejaVuSans-48"/>
     <use x="2265.773438" xlink:href="#DejaVuSans-48"/>
     <use x="2329.396484" xlink:href="#DejaVuSans-32"/>
     <use x="2361.183594" xlink:href="#DejaVuSans-101"/>
     <use x="2422.707031" xlink:href="#DejaVuSans-108"/>
     <use x="2450.490234" xlink:href="#DejaVuSans-101"/>
     <use x="2512.013672" xlink:href="#DejaVuSans-109"/>
     <use x="2609.425781" xlink:href="#DejaVuSans-101"/>
     <use x="2670.949219" xlink:href="#DejaVuSans-110"/>
     <use x="2734.328125" xlink:href="#DejaVuSans-116"/>
     <use x="2773.537109" xlink:href="#DejaVuSans-111"/>
     <use x="2834.71875" xlink:href="#DejaVuSans-115"/>
    </g>
   </g>
   <g id="legend_1">
    <g id="patch_91">
     <path d="M 76.925 484.7125 
L 178.6875 484.7125 
Q 180.6875 484.7125 180.6875 482.7125 
L 180.6875 366.2875 
Q 180.6875 364.2875 178.6875 364.2875 
L 76.925 364.2875 
Q 74.925 364.2875 74.925 366.2875 
L 74.925 482.7125 
Q 74.925 484.7125 76.925 484.7125 
z
" style="fill:#ffffff;opacity:0.8;stroke:#cccccc;stroke-linejoin:miter;"/>
    </g>
    <g id="line2d_19">
     <path d="M 78.925 372.385938 
L 98.925 372.385938 
" style="fill:none;stroke:#ff0000;stroke-dasharray:7.4,3.2;stroke-dashoffset:0;stroke-opacity:0.75;stroke-width:2;"/>
    </g>
    <g id="line2d_20"/>
    <g id="text_21">
     <!-- TIMEOUT -->
     <defs>
      <path d="M 9.8125 72.90625 
L 19.671875 72.90625 
L 19.671875 0 
L 9.8125 0 
z
" id="DejaVuSans-73"/>
      <path d="M 9.8125 72.90625 
L 24.515625 72.90625 
L 43.109375 23.296875 
L 61.8125 72.90625 
L 76.515625 72.90625 
L 76.515625 0 
L 66.890625 0 
L 66.890625 64.015625 
L 48.09375 14.015625 
L 38.1875 14.015625 
L 19.390625 64.015625 
L 19.390625 0 
L 9.8125 0 
z
" id="DejaVuSans-77"/>
      <path d="M 39.40625 66.21875 
Q 28.65625 66.21875 22.328125 58.203125 
Q 16.015625 50.203125 16.015625 36.375 
Q 16.015625 22.609375 22.328125 14.59375 
Q 28.65625 6.59375 39.40625 6.59375 
Q 50.140625 6.59375 56.421875 14.59375 
Q 62.703125 22.609375 62.703125 36.375 
Q 62.703125 50.203125 56.421875 58.203125 
Q 50.140625 66.21875 39.40625 66.21875 
z
M 39.40625 74.21875 
Q 54.734375 74.21875 63.90625 63.9375 
Q 73.09375 53.65625 73.09375 36.375 
Q 73.09375 19.140625 63.90625 8.859375 
Q 54.734375 -1.421875 39.40625 -1.421875 
Q 24.03125 -1.421875 14.8125 8.828125 
Q 5.609375 19.09375 5.609375 36.375 
Q 5.609375 53.65625 14.8125 63.9375 
Q 24.03125 74.21875 39.40625 74.21875 
z
" id="DejaVuSans-79"/>
      <path d="M 8.6875 72.90625 
L 18.609375 72.90625 
L 18.609375 28.609375 
Q 18.609375 16.890625 22.84375 11.734375 
Q 27.09375 6.59375 36.625 6.59375 
Q 46.09375 6.59375 50.34375 11.734375 
Q 54.59375 16.890625 54.59375 28.609375 
L 54.59375 72.90625 
L 64.5 72.90625 
L 64.5 27.390625 
Q 64.5 13.140625 57.4375 5.859375 
Q 50.390625 -1.421875 36.625 -1.421875 
Q 22.796875 -1.421875 15.734375 5.859375 
Q 8.6875 13.140625 8.6875 27.390625 
z
" id="DejaVuSans-85"/>
     </defs>
     <g transform="translate(106.925 375.885938)scale(0.1 -0.1)">
      <use xlink:href="#DejaVuSans-84"/>
      <use x="61.083984" xlink:href="#DejaVuSans-73"/>
      <use x="90.576172" xlink:href="#DejaVuSans-77"/>
      <use x="176.855469" xlink:href="#DejaVuSans-69"/>
      <use x="240.039062" xlink:href="#DejaVuSans-79"/>
      <use x="318.75" xlink:href="#DejaVuSans-85"/>
      <use x="391.943359" xlink:href="#DejaVuSans-84"/>
     </g>
    </g>
    <g id="patch_92">
     <path d="M 78.925 390.564063 
L 98.925 390.564063 
L 98.925 383.564063 
L 78.925 383.564063 
z
" style="fill:#1f77b4;opacity:0.9;"/>
    </g>
    <g id="text_22">
     <!-- Selection Sort -->
     <defs>
      <path d="M 53.515625 70.515625 
L 53.515625 60.890625 
Q 47.90625 63.578125 42.921875 64.890625 
Q 37.9375 66.21875 33.296875 66.21875 
Q 25.25 66.21875 20.875 63.09375 
Q 16.5 59.96875 16.5 54.203125 
Q 16.5 49.359375 19.40625 46.890625 
Q 22.3125 44.4375 30.421875 42.921875 
L 36.375 41.703125 
Q 47.40625 39.59375 52.65625 34.296875 
Q 57.90625 29 57.90625 20.125 
Q 57.90625 9.515625 50.796875 4.046875 
Q 43.703125 -1.421875 29.984375 -1.421875 
Q 24.8125 -1.421875 18.96875 -0.25 
Q 13.140625 0.921875 6.890625 3.21875 
L 6.890625 13.375 
Q 12.890625 10.015625 18.65625 8.296875 
Q 24.421875 6.59375 29.984375 6.59375 
Q 38.421875 6.59375 43.015625 9.90625 
Q 47.609375 13.234375 47.609375 19.390625 
Q 47.609375 24.75 44.3125 27.78125 
Q 41.015625 30.8125 33.5 32.328125 
L 27.484375 33.5 
Q 16.453125 35.6875 11.515625 40.375 
Q 6.59375 45.0625 6.59375 53.421875 
Q 6.59375 63.09375 13.40625 68.65625 
Q 20.21875 74.21875 32.171875 74.21875 
Q 37.3125 74.21875 42.625 73.28125 
Q 47.953125 72.359375 53.515625 70.515625 
z
" id="DejaVuSans-83"/>
     </defs>
     <g transform="translate(106.925 390.564063)scale(0.1 -0.1)">
      <use xlink:href="#DejaVuSans-83"/>
      <use x="63.476562" xlink:href="#DejaVuSans-101"/>
      <use x="125" xlink:href="#DejaVuSans-108"/>
      <use x="152.783203" xlink:href="#DejaVuSans-101"/>
      <use x="214.306641" xlink:href="#DejaVuSans-99"/>
      <use x="269.287109" xlink:href="#DejaVuSans-116"/>
      <use x="308.496094" xlink:href="#DejaVuSans-105"/>
      <use x="336.279297" xlink:href="#DejaVuSans-111"/>
      <use x="397.460938" xlink:href="#DejaVuSans-110"/>
      <use x="460.839844" xlink:href="#DejaVuSans-32"/>
      <use x="492.626953" xlink:href="#DejaVuSans-83"/>
      <use x="556.103516" xlink:href="#DejaVuSans-111"/>
      <use x="617.285156" xlink:href="#DejaVuSans-114"/>
      <use x="658.398438" xlink:href="#DejaVuSans-116"/>
     </g>
    </g>
    <g id="patch_93">
     <path d="M 78.925 405.242188 
L 98.925 405.242188 
L 98.925 398.242188 
L 78.925 398.242188 
z
" style="fill:#ff7f0e;opacity:0.9;"/>
    </g>
    <g id="text_23">
     <!-- Insertion Sort -->
     <g transform="translate(106.925 405.242188)scale(0.1 -0.1)">
      <use xlink:href="#DejaVuSans-73"/>
      <use x="29.492188" xlink:href="#DejaVuSans-110"/>
      <use x="92.871094" xlink:href="#DejaVuSans-115"/>
      <use x="144.970703" xlink:href="#DejaVuSans-101"/>
      <use x="206.494141" xlink:href="#DejaVuSans-114"/>
      <use x="247.607422" xlink:href="#DejaVuSans-116"/>
      <use x="286.816406" xlink:href="#DejaVuSans-105"/>
      <use x="314.599609" xlink:href="#DejaVuSans-111"/>
      <use x="375.78125" xlink:href="#DejaVuSans-110"/>
      <use x="439.160156" xlink:href="#DejaVuSans-32"/>
      <use x="470.947266" xlink:href="#DejaVuSans-83"/>
      <use x="534.423828" xlink:href="#DejaVuSans-111"/>
      <use x="595.605469" xlink:href="#DejaVuSans-114"/>
      <use x="636.71875" xlink:href="#DejaVuSans-116"/>
     </g>
    </g>
    <g id="patch_94">
     <path d="M 78.925 419.920313 
L 98.925 419.920313 
L 98.925 412.920313 
L 78.925 412.920313 
z
" style="fill:#2ca02c;opacity:0.9;"/>
    </g>
    <g id="text_24">
     <!-- Merge Sort -->
     <g transform="translate(106.925 419.920313)scale(0.1 -0.1)">
      <use xlink:href="#DejaVuSans-77"/>
      <use x="86.279297" xlink:href="#DejaVuSans-101"/>
      <use x="147.802734" xlink:href="#DejaVuSans-114"/>
      <use x="188.900391" xlink:href="#DejaVuSans-103"/>
      <use x="252.376953" xlink:href="#DejaVuSans-101"/>
      <use x="313.900391" xlink:href="#DejaVuSans-32"/>
      <use x="345.6875" xlink:href="#DejaVuSans-83"/>
      <use x="409.164062" xlink:href="#DejaVuSans-111"/>
      <use x="470.345703" xlink:href="#DejaVuSans-114"/>
      <use x="511.458984" xlink:href="#DejaVuSans-116"/>
     </g>
    </g>
    <g id="patch_95">
     <path d="M 78.925 434.598438 
L 98.925 434.598438 
L 98.925 427.598438 
L 78.925 427.598438 
z
" style="fill:#d62728;opacity:0.9;"/>
    </g>
    <g id="text_25">
     <!-- Heap Sort -->
     <defs>
      <path d="M 9.8125 72.90625 
L 19.671875 72.90625 
L 19.671875 43.015625 
L 55.515625 43.015625 
L 55.515625 72.90625 
L 65.375 72.90625 
L 65.375 0 
L 55.515625 0 
L 55.515625 34.71875 
L 19.671875 34.71875 
L 19.671875 0 
L 9.8125 0 
z
" id="DejaVuSans-72"/>
     </defs>
     <g transform="translate(106.925 434.598438)scale(0.1 -0.1)">
      <use xlink:href="#DejaVuSans-72"/>
      <use x="75.195312" xlink:href="#DejaVuSans-101"/>
      <use x="136.71875" xlink:href="#DejaVuSans-97"/>
      <use x="197.998047" xlink:href="#DejaVuSans-112"/>
      <use x="261.474609" xlink:href="#DejaVuSans-32"/>
      <use x="293.261719" xlink:href="#DejaVuSans-83"/>
      <use x="356.738281" xlink:href="#DejaVuSans-111"/>
      <use x="417.919922" xlink:href="#DejaVuSans-114"/>
      <use x="459.033203" xlink:href="#DejaVuSans-116"/>
     </g>
    </g>
    <g id="patch_96">
     <path d="M 78.925 449.276563 
L 98.925 449.276563 
L 98.925 442.276563 
L 78.925 442.276563 
z
" style="fill:#9467bd;opacity:0.9;"/>
    </g>
    <g id="text_26">
     <!-- Quick Sort -->
     <defs>
      <path d="M 9.078125 75.984375 
L 18.109375 75.984375 
L 18.109375 31.109375 
L 44.921875 54.6875 
L 56.390625 54.6875 
L 27.390625 29.109375 
L 57.625 0 
L 45.90625 0 
L 18.109375 26.703125 
L 18.109375 0 
L 9.078125 0 
z
" id="DejaVuSans-107"/>
     </defs>
     <g transform="translate(106.925 449.276563)scale(0.1 -0.1)">
      <use xlink:href="#DejaVuSans-81"/>
      <use x="78.710938" xlink:href="#DejaVuSans-117"/>
      <use x="142.089844" xlink:href="#DejaVuSans-105"/>
      <use x="169.873047" xlink:href="#DejaVuSans-99"/>
      <use x="224.853516" xlink:href="#DejaVuSans-107"/>
      <use x="282.763672" xlink:href="#DejaVuSans-32"/>
      <use x="314.550781" xlink:href="#DejaVuSans-83"/>
      <use x="378.027344" xlink:href="#DejaVuSans-111"/>
      <use x="439.208984" xlink:href="#DejaVuSans-114"/>
      <use x="480.322266" xlink:href="#DejaVuSans-116"/>
     </g>
    </g>
    <g id="patch_97">
     <path d="M 78.925 463.954687 
L 98.925 463.954687 
L 98.925 456.954687 
L 78.925 456.954687 
z
" style="fill:#8c564b;opacity:0.9;"/>
    </g>
    <g id="text_27">
     <!-- Intro Sort -->
     <g transform="translate(106.925 463.954687)scale(0.1 -0.1)">
      <use xlink:href="#DejaVuSans-73"/>
      <use x="29.492188" xlink:href="#DejaVuSans-110"/>
      <use x="92.871094" xlink:href="#DejaVuSans-116"/>
      <use x="132.080078" xlink:href="#DejaVuSans-114"/>
      <use x="173.162109" xlink:href="#DejaVuSans-111"/>
      <use x="234.34375" xlink:href="#DejaVuSans-32"/>
      <use x="266.130859" xlink:href="#DejaVuSans-83"/>
      <use x="329.607422" xlink:href="#DejaVuSans-111"/>
      <use x="390.789062" xlink:href="#DejaVuSans-114"/>
      <use x="431.902344" xlink:href="#DejaVuSans-116"/>
     </g>
    </g>
    <g id="patch_98">
     <path d="M 78.925 478.632812 
L 98.925 478.632812 
L 98.925 471.632812 
L 78.925 471.632812 
z
" style="fill:#e377c2;opacity:0.9;"/>
    </g>
    <g id="text_28">
     <!-- Tim Sort -->
     <g transform="translate(106.925 478.632812)scale(0.1 -0.1)">
      <use xlink:href="#DejaVuSans-84"/>
      <use x="61.037109" xlink:href="#DejaVuSans-105"/>
      <use x="88.820312" xlink:href="#DejaVuSans-109"/>
      <use x="186.232422" xlink:href="#DejaVuSans-32"/>
      <use x="218.019531" xlink:href="#DejaVuSans-83"/>
      <use x="281.496094" xlink:href="#DejaVuSans-111"/>
      <use x="342.677734" xlink:href="#DejaVuSans-114"/>
      <use x="383.791016" xlink:href="#DejaVuSans-116"/>
     </g>
    </g>
   </g>
  </g>
 </g>
 <defs>
  <clipPath id="pf6890dd8b0">
   <rect height="795.4" width="1359.275" x="69.925" y="26.8"/>
  </clipPath>
 </defs>
</svg>
